<svg width="26" height="27" viewBox="0 0 26 27" fill="none" xmlns="http://www.w3.org/2000/svg">
<path d="M6.2704 21.8609C5.12075 21.8609 4.13657 21.4515 3.31788 20.6329C2.49919 19.8142 2.08984 18.83 2.08984 17.6803V9.31923C2.08984 8.16957 2.49919 7.1854 3.31788 6.36671C4.13657 5.54802 5.12075 5.13867 6.2704 5.13867H18.8121C19.9617 5.13867 20.9459 5.54802 21.7646 6.36671C22.5833 7.1854 22.9926 8.16957 22.9926 9.31923V17.6803C22.9926 18.83 22.5833 19.8142 21.7646 20.6329C20.9459 21.4515 19.9617 21.8609 18.8121 21.8609H6.2704ZM6.2704 9.31923H18.8121C19.1953 9.31923 19.5611 9.36277 19.9095 9.44987C20.2578 9.53696 20.5888 9.67632 20.9023 9.86793V9.31923C20.9023 8.7444 20.6977 8.25231 20.2883 7.84297C19.879 7.43362 19.3869 7.22895 18.8121 7.22895H6.2704C5.69557 7.22895 5.20349 7.43362 4.79414 7.84297C4.38479 8.25231 4.18012 8.7444 4.18012 9.31923V9.86793C4.49366 9.67632 4.82462 9.53696 5.173 9.44987C5.52138 9.36277 5.88718 9.31923 6.2704 9.31923ZM4.33689 12.7159L15.9641 15.5378C16.1208 15.5726 16.2776 15.5726 16.4344 15.5378C16.5911 15.503 16.7392 15.4333 16.8786 15.3288L20.5104 12.2979C20.3188 12.0366 20.0749 11.8232 19.7788 11.6577C19.4827 11.4922 19.1604 11.4095 18.8121 11.4095H6.2704C5.81751 11.4095 5.42122 11.5271 5.08155 11.7622C4.74188 11.9974 4.49366 12.3153 4.33689 12.7159Z" fill="#005E5D"/>
</svg>
