<svg width="24" height="25" viewBox="0 0 24 25" fill="none" xmlns="http://www.w3.org/2000/svg">
<path d="M23.5302 10.7129L20.9043 9.92908C20.7227 9.29519 20.4731 8.68282 20.1596 8.1027L21.4452 5.69627C21.4934 5.60543 21.5111 5.50147 21.4955 5.3998C21.48 5.29813 21.4321 5.20418 21.3589 5.13189L19.4855 3.25064C19.4132 3.17748 19.3193 3.12958 19.2176 3.11405C19.1159 3.09852 19.012 3.11618 18.9211 3.16442L16.5304 4.4421C15.9445 4.1134 15.3241 3.85051 14.6805 3.65824L13.8966 1.06369C13.8635 0.96807 13.8008 0.885438 13.7177 0.827686C13.6346 0.769934 13.5353 0.74004 13.4342 0.742308H10.7847C10.6829 0.742781 10.584 0.775727 10.5022 0.836349C10.4204 0.896971 10.3601 0.982107 10.3301 1.07936L9.54625 3.66608C8.89723 3.85733 8.27152 4.12023 7.68068 4.44994L5.32911 3.18009C5.23828 3.13186 5.13431 3.1142 5.03265 3.12973C4.93098 3.14526 4.83703 3.19316 4.76474 3.26632L2.85997 5.12405C2.78682 5.19634 2.73892 5.29029 2.72338 5.39196C2.70785 5.49363 2.72551 5.59759 2.77375 5.68843L4.04359 8.03999C3.71442 8.62835 3.45153 9.2514 3.25974 9.89773L0.665182 10.6816C0.567924 10.7116 0.482789 10.7719 0.422166 10.8537C0.361544 10.9354 0.328599 11.0344 0.328125 11.1362V13.7856C0.328599 13.8874 0.361544 13.9864 0.422166 14.0682C0.482789 14.15 0.567924 14.2102 0.665182 14.2403L3.27542 15.0241C3.4693 15.6597 3.73215 16.2721 4.05927 16.8505L2.77375 19.3118C2.72551 19.4026 2.70785 19.5066 2.72338 19.6083C2.73892 19.7099 2.78682 19.8039 2.85997 19.8762L4.73338 21.7496C4.80567 21.8228 4.89962 21.8707 5.00129 21.8862C5.10296 21.9017 5.20693 21.8841 5.29776 21.8358L7.71987 20.5425C8.29284 20.8516 8.89723 21.0986 9.52273 21.2793L10.3066 23.9209C10.3366 24.0181 10.3969 24.1033 10.4787 24.1639C10.5605 24.2245 10.6594 24.2575 10.7612 24.2579H13.4107C13.5124 24.2575 13.6114 24.2245 13.6932 24.1639C13.775 24.1033 13.8352 24.0181 13.8653 23.9209L14.6491 21.2714C15.2693 21.0899 15.8684 20.8429 16.4363 20.5346L18.8741 21.8358C18.9649 21.8841 19.0689 21.9017 19.1706 21.8862C19.2722 21.8707 19.3662 21.8228 19.4385 21.7496L21.3119 19.8762C21.3851 19.8039 21.433 19.7099 21.4485 19.6083C21.464 19.5066 21.4464 19.4026 21.3981 19.3118L20.0969 16.8819C20.4084 16.3118 20.658 15.71 20.8416 15.0868L23.4832 14.303C23.5804 14.2729 23.6656 14.2127 23.7262 14.1309C23.7868 14.0491 23.8198 13.9501 23.8202 13.8483V11.1754C23.8249 11.0779 23.7995 10.9814 23.7477 10.8987C23.6959 10.816 23.62 10.7512 23.5302 10.7129ZM12.1095 16.8113C11.2568 16.8113 10.4233 16.5585 9.71428 16.0847C9.00531 15.611 8.45273 14.9377 8.12642 14.1499C7.80012 13.3622 7.71474 12.4953 7.88109 11.659C8.04744 10.8228 8.45804 10.0546 9.06097 9.45164C9.66391 8.84871 10.4321 8.43811 11.2684 8.27176C12.1047 8.10541 12.9715 8.19079 13.7593 8.51709C14.547 8.8434 15.2204 9.39597 15.6941 10.1049C16.1678 10.8139 16.4207 11.6474 16.4207 12.5001C16.4207 13.6435 15.9664 14.7401 15.1579 15.5486C14.3494 16.3571 13.2529 16.8113 12.1095 16.8113Z" fill="#005E5D"/>
</svg>
