<svg width="21" height="23" viewBox="0 0 21 23" fill="none" xmlns="http://www.w3.org/2000/svg">
<path d="M16.1159 22.0302L17.3178 20.8283L12.6669 16.1774L11.465 17.3793C10.8205 18.0238 10.4983 18.799 10.4983 19.7048C10.4983 20.6106 10.8205 21.3857 11.465 22.0302C12.1095 22.6747 12.8847 22.997 13.7905 22.997C14.6962 22.997 15.4714 22.6747 16.1159 22.0302ZM18.781 19.3651L19.9829 18.1632C20.6274 17.5187 20.9497 16.7435 20.9497 15.8378C20.9497 14.932 20.6274 14.1568 19.9829 13.5123C19.3384 12.8678 18.5633 12.5456 17.6575 12.5456C16.7517 12.5456 15.9765 12.8678 15.332 13.5123L14.1301 14.7142L18.781 19.3651ZM4.22743 8.36502H14.6788V6.27474H4.22743V8.36502ZM9.45313 3.40061C9.67957 3.40061 9.86683 3.32658 10.0149 3.17852C10.1629 3.03045 10.237 2.8432 10.237 2.61675C10.237 2.39031 10.1629 2.20305 10.0149 2.05499C9.86683 1.90693 9.67957 1.8329 9.45313 1.8329C9.22668 1.8329 9.03942 1.90693 8.89136 2.05499C8.7433 2.20305 8.66927 2.39031 8.66927 2.61675C8.66927 2.8432 8.7433 3.03045 8.89136 3.17852C9.03942 3.32658 9.22668 3.40061 9.45313 3.40061ZM8.53863 20.9067H2.13715C1.56233 20.9067 1.07024 20.702 0.660894 20.2927C0.251548 19.8833 0.046875 19.3912 0.046875 18.8164V4.18446C0.046875 3.60964 0.251548 3.11755 0.660894 2.7082C1.07024 2.29886 1.56233 2.09418 2.13715 2.09418H6.52674C6.75318 1.4671 7.13205 0.96195 7.66332 0.578733C8.1946 0.195515 8.7912 0.00390625 9.45313 0.00390625C10.115 0.00390625 10.7116 0.195515 11.2429 0.578733C11.7742 0.96195 12.1531 1.4671 12.3795 2.09418H16.7691C17.3439 2.09418 17.836 2.29886 18.2454 2.7082C18.6547 3.11755 18.8594 3.60964 18.8594 4.18446V10.5859C18.1278 10.4117 17.4005 10.3987 16.6776 10.5467C15.9548 10.6948 15.2885 10.9692 14.6788 11.3698V10.4553H4.22743V12.5456H13.3463L11.256 14.6358H4.22743V16.7261H9.32248C8.92185 17.3358 8.6475 18.0021 8.49944 18.725C8.35138 19.4478 8.36444 20.1751 8.53863 20.9067Z" fill="#005E5D"/>
</svg>
