<svg width="21" height="23" viewBox="0 0 21 23" fill="none" xmlns="http://www.w3.org/2000/svg">
<path id="mark_unread_chat_alt" d="M17.8611 6.27474C16.9902 6.27474 16.2499 5.96991 15.6402 5.36024C15.0305 4.75058 14.7257 4.01027 14.7257 3.13932C14.7257 2.26837 15.0305 1.52807 15.6402 0.918403C16.2499 0.308738 16.9902 0.00390625 17.8611 0.00390625C18.7321 0.00390625 19.4724 0.308738 20.082 0.918403C20.6917 1.52807 20.9965 2.26837 20.9965 3.13932C20.9965 4.01027 20.6917 4.75058 20.082 5.36024C19.4724 5.96991 18.7321 6.27474 17.8611 6.27474ZM0.09375 22.997V4.18446C0.09375 3.60964 0.298423 3.11755 0.707769 2.7082C1.11712 2.29886 1.6092 2.09418 2.18403 2.09418H12.7399C12.6703 2.44256 12.6354 2.79094 12.6354 3.13932C12.6354 3.4877 12.6703 3.83608 12.7399 4.18446C12.827 4.5851 12.949 4.95961 13.1057 5.30799C13.2625 5.65637 13.4541 5.97862 13.6806 6.27474H4.27431V8.36502H17.8611C18.4185 8.36502 18.9672 8.27792 19.5072 8.10373C20.0472 7.92954 20.5436 7.66826 20.9965 7.31988V16.7261C20.9965 17.301 20.7919 17.793 20.3825 18.2024C19.9732 18.6117 19.4811 18.8164 18.9063 18.8164H4.27431L0.09375 22.997ZM4.27431 11.5004H16.816V9.41016H4.27431V11.5004ZM4.27431 14.6358H12.6354V12.5456H4.27431V14.6358Z" fill="#005E5D"/>
</svg>
