<svg width="19" height="19" viewBox="0 0 19 19" fill="none" xmlns="http://www.w3.org/2000/svg">
<path id="Vector" fill-rule="evenodd" clip-rule="evenodd" d="M5.35851 4.27431C5.35851 3.16555 5.79896 2.10221 6.58296 1.31821C7.36697 0.5342 8.43031 0.09375 9.53906 0.09375C10.6478 0.09375 11.7112 0.5342 12.4952 1.31821C13.2792 2.10221 13.7196 3.16555 13.7196 4.27431C13.7196 5.38306 13.2792 6.4464 12.4952 7.2304C11.7112 8.01441 10.6478 8.45486 9.53906 8.45486C8.43031 8.45486 7.36697 8.01441 6.58296 7.2304C5.79896 6.4464 5.35851 5.38306 5.35851 4.27431ZM5.35851 10.5451C3.97257 10.5451 2.64339 11.0957 1.66338 12.0757C0.683375 13.0557 0.132813 14.3849 0.132812 15.7708C0.132813 16.6024 0.46315 17.3999 1.05115 17.9879C1.63916 18.5759 2.43666 18.9062 3.26823 18.9062H15.8099C16.6415 18.9062 17.439 18.5759 18.027 17.9879C18.615 17.3999 18.9453 16.6024 18.9453 15.7708C18.9453 14.3849 18.3947 13.0557 17.4147 12.0757C16.4347 11.0957 15.1056 10.5451 13.7196 10.5451H5.35851Z" fill="#005E5D"/>
</svg>
