<svg width="18" height="18" viewBox="0 0 18 18" fill="none" xmlns="http://www.w3.org/2000/svg">
<g id="add">
<mask id="path-1-inside-1_2343_8411" fill="white">
<path d="M7.68143 17.6571V10.4991H0.523438V8.11307H7.68143V0.955078H10.0674V8.11307H17.2254V10.4991H10.0674V17.6571H7.68143Z"/>
</mask>
<path d="M7.68143 17.6571V10.4991H0.523438V8.11307H7.68143V0.955078H10.0674V8.11307H17.2254V10.4991H10.0674V17.6571H7.68143Z" fill="#005E5D"/>
<path d="M7.68143 17.6571H1.49551V23.843H7.68143V17.6571ZM7.68143 10.4991H13.8674V4.31315H7.68143V10.4991ZM0.523438 10.4991H-5.66248V16.685H0.523438V10.4991ZM0.523438 8.11307V1.92715H-5.66248V8.11307H0.523438ZM7.68143 8.11307V14.299H13.8674V8.11307H7.68143ZM7.68143 0.955078V-5.23084H1.49551V0.955078H7.68143ZM10.0674 0.955078H16.2533V-5.23084H10.0674V0.955078ZM10.0674 8.11307H3.88151V14.299H10.0674V8.11307ZM17.2254 8.11307H23.4113V1.92715H17.2254V8.11307ZM17.2254 10.4991V16.685H23.4113V10.4991H17.2254ZM10.0674 10.4991V4.31315H3.88151V10.4991H10.0674ZM10.0674 17.6571V23.843H16.2533V17.6571H10.0674ZM13.8674 17.6571V10.4991H1.49551V17.6571H13.8674ZM7.68143 4.31315H0.523438V16.685H7.68143V4.31315ZM6.70936 10.4991V8.11307H-5.66248V10.4991H6.70936ZM0.523438 14.299H7.68143V1.92715H0.523438V14.299ZM13.8674 8.11307V0.955078H1.49551V8.11307H13.8674ZM7.68143 7.141H10.0674V-5.23084H7.68143V7.141ZM3.88151 0.955078V8.11307H16.2533V0.955078H3.88151ZM10.0674 14.299H17.2254V1.92715H10.0674V14.299ZM11.0395 8.11307V10.4991H23.4113V8.11307H11.0395ZM17.2254 4.31315H10.0674V16.685H17.2254V4.31315ZM3.88151 10.4991V17.6571H16.2533V10.4991H3.88151ZM10.0674 11.4711H7.68143V23.843H10.0674V11.4711Z" fill="#005E5D" mask="url(#path-1-inside-1_2343_8411)"/>
</g>
</svg>
