<svg width="25" height="24" viewBox="0 0 25 24" fill="none" xmlns="http://www.w3.org/2000/svg">
<path id="account_balance_wallet" d="M17.0529 13.659C17.5975 13.659 18.0479 13.481 18.4039 13.1249C18.76 12.7688 18.9381 12.3185 18.9381 11.7739C18.9381 11.2293 18.76 10.7789 18.4039 10.4228C18.0479 10.0667 17.5975 9.8887 17.0529 9.8887C16.5083 9.8887 16.058 10.0667 15.7019 10.4228C15.3458 10.7789 15.1678 11.2293 15.1678 11.7739C15.1678 12.3185 15.3458 12.7688 15.7019 13.1249C16.058 13.481 16.5083 13.659 17.0529 13.659ZM13.2826 18.0577C12.5914 18.0577 11.9996 17.8116 11.5074 17.3194C11.0152 16.8271 10.769 16.2354 10.769 15.5442V8.00354C10.769 7.31231 11.0152 6.72058 11.5074 6.22835C11.9996 5.73611 12.5914 5.48999 13.2826 5.48999H22.08C22.7712 5.48999 23.363 5.73611 23.8552 6.22835C24.3474 6.72058 24.5936 7.31231 24.5936 8.00354V15.5442C24.5936 16.2354 24.3474 16.8271 23.8552 17.3194C23.363 17.8116 22.7712 18.0577 22.08 18.0577H13.2826ZM3.22839 23.0848C2.53717 23.0848 1.94544 22.8387 1.4532 22.3465C0.960962 21.8542 0.714844 21.2625 0.714844 20.5713V2.97644C0.714844 2.28521 0.960962 1.69348 1.4532 1.20125C1.94544 0.709009 2.53717 0.462891 3.22839 0.462891H20.8232C21.5145 0.462891 22.1062 0.709009 22.5984 1.20125C23.0907 1.69348 23.3368 2.28521 23.3368 2.97644H13.2826C11.7954 2.97644 10.5858 3.44249 9.65366 4.3746C8.72155 5.30671 8.25549 6.51636 8.25549 8.00354V15.5442C8.25549 17.0314 8.72155 18.241 9.65366 19.1731C10.5858 20.1052 11.7954 20.5713 13.2826 20.5713H23.3368C23.3368 21.2625 23.0907 21.8542 22.5984 22.3465C22.1062 22.8387 21.5145 23.0848 20.8232 23.0848H3.22839Z" fill="#0663BD"/>
</svg>
