<svg width="9" height="11" viewBox="0 0 9 11" fill="none" xmlns="http://www.w3.org/2000/svg">
<path id="bloodtype" d="M4.76332 10.6129C3.61674 10.6129 2.66055 10.2195 1.89477 9.43283C1.12899 8.64613 0.746094 7.66693 0.746094 6.49524C0.746094 5.65831 1.07877 4.74816 1.74412 3.76478C2.40948 2.78139 3.41588 1.71641 4.76332 0.569824C6.11077 1.71641 7.11717 2.78139 7.78252 3.76478C8.44787 4.74816 8.78055 5.65831 8.78055 6.49524C8.78055 7.66693 8.39766 8.64613 7.63188 9.43283C6.86609 10.2195 5.90991 10.6129 4.76332 10.6129ZM4.76332 9.60859C5.63372 9.60859 6.35348 9.31357 6.92258 8.72354C7.49169 8.13351 7.77624 7.39074 7.77624 6.49524C7.77624 5.88428 7.52307 5.19382 7.01674 4.42385C6.5104 3.65388 5.75926 2.81278 4.76332 1.90053C3.76738 2.81278 3.01625 3.65388 2.50991 4.42385C2.00357 5.19382 1.7504 5.88428 1.7504 6.49524C1.7504 7.39074 2.03495 8.13351 2.60406 8.72354C3.17317 9.31357 3.89292 9.60859 4.76332 9.60859ZM3.25686 8.60428H6.26978V7.59997H3.25686V8.60428ZM4.26117 7.09782H5.26548V6.09351H6.26978V5.08921H5.26548V4.0849H4.26117V5.08921H3.25686V6.09351H4.26117V7.09782Z" fill="#005E5D"/>
</svg>
