<svg width="17" height="26" viewBox="0 0 17 26" fill="none" xmlns="http://www.w3.org/2000/svg">
<path id="Vector" d="M15.544 14.7851C15.5132 14.6985 15.4765 14.6142 15.4342 14.5326L15.4395 14.5442C15.2853 14.1841 14.0453 11.7887 13.8383 11.4623L8.08111 0.353516L2.17711 11.7348C1.97643 12.0622 0.875901 14.1852 0.723812 14.5442L0.66361 14.6773C0.270951 15.6343 0.0706892 16.6593 0.0742658 17.6938C0.0742658 19.8176 0.917953 21.8544 2.41973 23.3562C3.9215 24.858 5.95834 25.7017 8.08216 25.7017C10.206 25.7017 12.2428 24.858 13.7446 23.3562C15.2464 21.8544 16.0901 19.8176 16.0901 17.6938V17.6874L16.0911 17.5807C16.0911 16.5721 15.8904 15.6099 15.5261 14.7333L15.544 14.7829V14.7851ZM8.08533 23.6094C7.06093 23.6096 6.05412 23.343 5.16404 22.8359C4.27396 22.3288 3.53128 21.5987 3.00913 20.7173C2.48697 19.836 2.20335 18.8338 2.18616 17.8096C2.16898 16.7853 2.41884 15.7742 2.91115 14.8759L2.8953 14.9065C2.81794 15.3178 2.77905 15.7354 2.77912 16.1539V16.1549C2.78024 18.0302 3.5257 19.8284 4.85174 21.1544C6.17778 22.4805 7.97595 23.2259 9.85125 23.227C9.9706 23.227 10.0984 23.227 10.2167 23.2207C9.54166 23.4801 8.82433 23.6119 8.10118 23.6094H8.07688H8.08533Z" fill="#005E5D"/>
</svg>
