<svg width="13" height="14" viewBox="0 0 13 14" fill="none" xmlns="http://www.w3.org/2000/svg">
<path id="calendar_month" d="M2.11404 13.6814C1.76471 13.6814 1.46566 13.557 1.2169 13.3082C0.968132 13.0595 0.84375 12.7604 0.84375 12.4111V3.51909C0.84375 3.16976 0.968132 2.87071 1.2169 2.62195C1.46566 2.37318 1.76471 2.2488 2.11404 2.2488H2.74918V0.978516H4.01946V2.2488H9.10061V0.978516H10.3709V2.2488H11.006C11.3554 2.2488 11.6544 2.37318 11.9032 2.62195C12.1519 2.87071 12.2763 3.16976 12.2763 3.51909V12.4111C12.2763 12.7604 12.1519 13.0595 11.9032 13.3082C11.6544 13.557 11.3554 13.6814 11.006 13.6814H2.11404ZM2.11404 12.4111H11.006V6.05966H2.11404V12.4111ZM2.11404 4.78937H11.006V3.51909H2.11404V4.78937ZM6.56003 8.60023C6.38008 8.60023 6.22923 8.53936 6.1075 8.41763C5.98576 8.29589 5.92489 8.14504 5.92489 7.96509C5.92489 7.78513 5.98576 7.63428 6.1075 7.51255C6.22923 7.39081 6.38008 7.32994 6.56003 7.32994C6.73999 7.32994 6.89084 7.39081 7.01257 7.51255C7.13431 7.63428 7.19518 7.78513 7.19518 7.96509C7.19518 8.14504 7.13431 8.29589 7.01257 8.41763C6.89084 8.53936 6.73999 8.60023 6.56003 8.60023ZM4.01946 8.60023C3.83951 8.60023 3.68866 8.53936 3.56692 8.41763C3.44519 8.29589 3.38432 8.14504 3.38432 7.96509C3.38432 7.78513 3.44519 7.63428 3.56692 7.51255C3.68866 7.39081 3.83951 7.32994 4.01946 7.32994C4.19942 7.32994 4.35027 7.39081 4.472 7.51255C4.59374 7.63428 4.65461 7.78513 4.65461 7.96509C4.65461 8.14504 4.59374 8.29589 4.472 8.41763C4.35027 8.53936 4.19942 8.60023 4.01946 8.60023ZM9.10061 8.60023C8.92065 8.60023 8.7698 8.53936 8.64807 8.41763C8.52633 8.29589 8.46546 8.14504 8.46546 7.96509C8.46546 7.78513 8.52633 7.63428 8.64807 7.51255C8.7698 7.39081 8.92065 7.32994 9.10061 7.32994C9.28056 7.32994 9.43141 7.39081 9.55315 7.51255C9.67488 7.63428 9.73575 7.78513 9.73575 7.96509C9.73575 8.14504 9.67488 8.29589 9.55315 8.41763C9.43141 8.53936 9.28056 8.60023 9.10061 8.60023ZM6.56003 11.1408C6.38008 11.1408 6.22923 11.0799 6.1075 10.9582C5.98576 10.8365 5.92489 10.6856 5.92489 10.5057C5.92489 10.3257 5.98576 10.1749 6.1075 10.0531C6.22923 9.93138 6.38008 9.87051 6.56003 9.87051C6.73999 9.87051 6.89084 9.93138 7.01257 10.0531C7.13431 10.1749 7.19518 10.3257 7.19518 10.5057C7.19518 10.6856 7.13431 10.8365 7.01257 10.9582C6.89084 11.0799 6.73999 11.1408 6.56003 11.1408ZM4.01946 11.1408C3.83951 11.1408 3.68866 11.0799 3.56692 10.9582C3.44519 10.8365 3.38432 10.6856 3.38432 10.5057C3.38432 10.3257 3.44519 10.1749 3.56692 10.0531C3.68866 9.93138 3.83951 9.87051 4.01946 9.87051C4.19942 9.87051 4.35027 9.93138 4.472 10.0531C4.59374 10.1749 4.65461 10.3257 4.65461 10.5057C4.65461 10.6856 4.59374 10.8365 4.472 10.9582C4.35027 11.0799 4.19942 11.1408 4.01946 11.1408ZM9.10061 11.1408C8.92065 11.1408 8.7698 11.0799 8.64807 10.9582C8.52633 10.8365 8.46546 10.6856 8.46546 10.5057C8.46546 10.3257 8.52633 10.1749 8.64807 10.0531C8.7698 9.93138 8.92065 9.87051 9.10061 9.87051C9.28056 9.87051 9.43141 9.93138 9.55315 10.0531C9.67488 10.1749 9.73575 10.3257 9.73575 10.5057C9.73575 10.6856 9.67488 10.8365 9.55315 10.9582C9.43141 11.0799 9.28056 11.1408 9.10061 11.1408Z" fill="#005E5D"/>
</svg>
