<svg width="15" height="14" viewBox="0 0 15 14" fill="none" xmlns="http://www.w3.org/2000/svg">
<path d="M13.2335 13.8286C11.6392 13.8286 10.085 13.4732 8.57096 12.7626C7.05694 12.0519 5.71595 11.1126 4.54799 9.94464C3.38003 8.77668 2.44072 7.43569 1.73006 5.92167C1.01939 4.40765 0.664062 2.85346 0.664062 1.25911C0.664062 1.03664 0.738219 0.851249 0.886531 0.702937C1.03484 0.554625 1.22023 0.480469 1.4427 0.480469H4.44602C4.61906 0.480469 4.77355 0.536086 4.9095 0.64732C5.04545 0.758554 5.12579 0.900687 5.15051 1.07372L5.63252 3.66918C5.65724 3.84221 5.65415 3.99979 5.62325 4.14193C5.59235 4.28406 5.52129 4.41074 5.41005 4.52198L3.63031 6.3388C4.1494 7.22868 4.79827 8.06293 5.57691 8.84157C6.35554 9.62021 7.21452 10.2938 8.15383 10.8623L9.8965 9.11966C10.0077 9.00842 10.153 8.925 10.3322 8.86938C10.5114 8.81376 10.6875 8.79831 10.8605 8.82303L13.4189 9.34212C13.5919 9.3792 13.7341 9.46263 13.8453 9.5924C13.9565 9.72218 14.0122 9.87358 14.0122 10.0466V13.0499C14.0122 13.2724 13.938 13.4578 13.7897 13.6061C13.6414 13.7544 13.456 13.8286 13.2335 13.8286Z" fill="#005E5D"/>
</svg>
