<svg width="22" height="22" viewBox="0 0 22 22" fill="none" xmlns="http://www.w3.org/2000/svg">
<path id="Vector" d="M8.64756 0.637207C8.28213 0.637218 7.92389 0.738766 7.61281 0.93052C7.30173 1.12227 7.05005 1.39669 6.88585 1.72315L6.11018 3.26662H3.88832C3.01662 3.26662 2.18062 3.6129 1.56423 4.22929C0.947845 4.84568 0.601563 5.68168 0.601562 6.55338V17.071C0.601562 17.9427 0.947845 18.7787 1.56423 19.3951C2.18062 20.0115 3.01662 20.3578 3.88832 20.3578H8.48979C8.50031 20.2079 8.52397 20.0554 8.5621 19.9016L9.05512 17.9322C9.20762 17.3221 9.49554 16.7542 9.89521 16.2717C8.64503 15.9696 7.54881 15.22 6.81371 14.1646C6.07861 13.1092 5.75556 11.821 5.90561 10.5437C6.05565 9.26626 6.66839 8.08807 7.62805 7.23174C8.5877 6.3754 9.82778 5.90023 11.1139 5.89603C12.2929 5.8962 13.4377 6.29233 14.3646 7.02089C15.2915 7.74945 15.9468 8.76821 16.2255 9.91377L16.5095 9.6311C17.1823 8.95836 18.0845 8.56464 19.0353 8.52881C19.9861 8.49297 20.9153 8.81766 21.6368 9.43784V6.55207C21.6368 5.68036 21.2906 4.84436 20.6742 4.22797C20.0578 3.61159 19.2218 3.2653 18.3501 3.2653H16.1295L15.3604 1.7271C15.1966 1.3995 14.9447 1.12401 14.6331 0.931508C14.3215 0.739005 13.9624 0.637097 13.5961 0.637207H8.64756ZM15.0594 11.0825C15.0453 10.3088 14.8039 9.5562 14.3652 8.91862C13.9266 8.28103 13.31 7.78659 12.5924 7.49688C11.8747 7.20716 11.0877 7.13498 10.3294 7.28932C9.57099 7.44365 8.87479 7.81769 8.32746 8.36484C7.78013 8.91199 7.40586 9.60808 7.25128 10.3664C7.09669 11.1247 7.16862 11.9118 7.4581 12.6295C7.74758 13.3472 8.24182 13.9639 8.87926 14.4028C9.5167 14.8417 10.2692 15.0833 11.0429 15.0976L15.0594 11.0825ZM17.439 10.5606L11.089 16.9106C10.7194 17.2807 10.4572 17.7442 10.3304 18.2516L9.83737 20.2211C9.78874 20.4169 9.79161 20.622 9.84569 20.8165C9.89977 21.0109 10.0032 21.1881 10.146 21.3307C10.2888 21.4733 10.466 21.5766 10.6605 21.6305C10.855 21.6844 11.0601 21.6871 11.2559 21.6383L13.2254 21.1466C13.733 21.0196 14.1966 20.757 14.5664 20.3867L20.9164 14.0367C21.3715 13.5743 21.6253 12.9509 21.6227 12.3021C21.6201 11.6534 21.3611 11.032 20.9023 10.5734C20.4435 10.1147 19.822 9.85602 19.1733 9.85363C18.5246 9.85124 17.9012 10.1054 17.439 10.5606Z" fill="white"/>
</svg>
