<svg width="21" height="23" viewBox="0 0 21 23" fill="none" xmlns="http://www.w3.org/2000/svg">
<path id="mark_unread_chat_alt" d="M17.8572 6.27474C16.9863 6.27474 16.246 5.96991 15.6363 5.36024C15.0266 4.75058 14.7218 4.01027 14.7218 3.13932C14.7218 2.26837 15.0266 1.52807 15.6363 0.918403C16.246 0.308738 16.9863 0.00390625 17.8572 0.00390625C18.7282 0.00390625 19.4685 0.308738 20.0781 0.918403C20.6878 1.52807 20.9926 2.26837 20.9926 3.13932C20.9926 4.01027 20.6878 4.75058 20.0781 5.36024C19.4685 5.96991 18.7282 6.27474 17.8572 6.27474ZM0.0898438 22.997V4.18446C0.0898438 3.60964 0.294517 3.11755 0.703863 2.7082C1.11321 2.29886 1.6053 2.09418 2.18012 2.09418H12.736C12.6663 2.44256 12.6315 2.79094 12.6315 3.13932C12.6315 3.4877 12.6663 3.83608 12.736 4.18446C12.8231 4.5851 12.9451 4.95961 13.1018 5.30799C13.2586 5.65637 13.4502 5.97862 13.6767 6.27474H4.2704V8.36502H17.8572C18.4146 8.36502 18.9633 8.27792 19.5033 8.10373C20.0433 7.92954 20.5397 7.66826 20.9926 7.31988V16.7261C20.9926 17.301 20.788 17.793 20.3786 18.2024C19.9693 18.6117 19.4772 18.8164 18.9023 18.8164H4.2704L0.0898438 22.997ZM4.2704 11.5004H16.8121V9.41016H4.2704V11.5004ZM4.2704 14.6358H12.6315V12.5456H4.2704V14.6358Z" fill="white"/>
</svg>
