<svg width="19" height="19" viewBox="0 0 19 19" fill="none" xmlns="http://www.w3.org/2000/svg">
<path d="M5.27874 10.637H11.2112V9.15389H5.27874V10.637ZM5.27874 8.41233H14.1775V6.92921H5.27874V8.41233ZM5.27874 6.18765H14.1775V4.70453H5.27874V6.18765ZM2.3125 16.5695V3.2214C2.3125 2.81354 2.45772 2.46439 2.74817 2.17395C3.03861 1.8835 3.38776 1.73828 3.79562 1.73828H15.6606C16.0685 1.73828 16.4176 1.8835 16.7081 2.17395C16.9985 2.46439 17.1437 2.81354 17.1437 3.2214V12.1201C17.1437 12.528 16.9985 12.8771 16.7081 13.1676C16.4176 13.458 16.0685 13.6033 15.6606 13.6033H5.27874L2.3125 16.5695Z" fill="#005E5D"/>
</svg>
