<svg width="10" height="10" viewBox="0 0 10 10" fill="none" xmlns="http://www.w3.org/2000/svg">
<g id="Group">
<path id="Vector" d="M0.835938 8.18717C0.835937 7.63041 1.05711 7.09645 1.4508 6.70276C1.84449 6.30906 2.37845 6.08789 2.93522 6.08789H7.13378C7.69054 6.08789 8.2245 6.30906 8.6182 6.70276C9.01189 7.09645 9.23306 7.63041 9.23306 8.18717C9.23306 8.46555 9.12247 8.73253 8.92563 8.92938C8.72878 9.12623 8.4618 9.23681 8.18342 9.23681H1.88558C1.6072 9.23681 1.34022 9.12623 1.14337 8.92938C0.946524 8.73253 0.835938 8.46555 0.835938 8.18717Z" stroke="#005E5D" stroke-width="0.78723" stroke-linejoin="round"/>
<path id="Vector_2" d="M5.0354 3.98877C5.90495 3.98877 6.60986 3.28386 6.60986 2.4143C6.60986 1.54475 5.90495 0.839844 5.0354 0.839844C4.16585 0.839844 3.46094 1.54475 3.46094 2.4143C3.46094 3.28386 4.16585 3.98877 5.0354 3.98877Z" stroke="#005E5D" stroke-width="0.78723"/>
</g>
</svg>
