<svg width="27" height="27" viewBox="0 0 27 27" fill="none" xmlns="http://www.w3.org/2000/svg">
<g id="Group">
<path id="Vector" fill-rule="evenodd" clip-rule="evenodd" d="M18.8894 2.79492C19.7632 2.79492 20.6011 3.14202 21.219 3.75986C21.8368 4.37769 22.1839 5.21566 22.1839 6.08942V23.6601C22.1838 23.8669 22.1253 24.0695 22.015 24.2445C21.9048 24.4195 21.7474 24.5599 21.561 24.6494C21.3745 24.7389 21.1665 24.7739 20.961 24.7504C20.7556 24.7269 20.5609 24.6459 20.3994 24.5166L18.3403 22.8694L16.2813 24.5166C16.0703 24.6856 15.8045 24.7709 15.5346 24.7561C15.2647 24.7413 15.0097 24.6275 14.8185 24.4365L13.3986 23.0165L11.9787 24.4365C11.7876 24.6277 11.5327 24.7417 11.2628 24.7567C10.9929 24.7716 10.727 24.6866 10.5159 24.5177L8.45686 22.8694L6.3978 24.5166C6.23634 24.6459 6.04165 24.7269 5.83615 24.7504C5.63066 24.7739 5.4227 24.7389 5.23624 24.6494C5.04977 24.5599 4.89237 24.4195 4.78216 24.2445C4.67195 24.0695 4.61341 23.8669 4.61328 23.6601V6.08942C4.61328 5.21566 4.96038 4.37769 5.57822 3.75986C6.19605 3.14202 7.03402 2.79492 7.90778 2.79492H18.8894ZM13.3986 13.7766H10.1041C9.81285 13.7766 9.53353 13.8923 9.32759 14.0982C9.12164 14.3042 9.00594 14.5835 9.00594 14.8747C9.00594 15.166 9.12164 15.4453 9.32759 15.6513C9.53353 15.8572 9.81285 15.9729 10.1041 15.9729H13.3986C13.6899 15.9729 13.9692 15.8572 14.1751 15.6513C14.3811 15.4453 14.4968 15.166 14.4968 14.8747C14.4968 14.5835 14.3811 14.3042 14.1751 14.0982C13.9692 13.8923 13.6899 13.7766 13.3986 13.7766ZM16.6931 9.38391H10.1041C9.82421 9.38422 9.55499 9.4914 9.35146 9.68354C9.14793 9.87569 9.02545 10.1383 9.00905 10.4177C8.99264 10.6971 9.08355 10.9723 9.2632 11.1869C9.44285 11.4016 9.69768 11.5395 9.97562 11.5726L10.1041 11.5802H16.6931C16.973 11.5799 17.2422 11.4728 17.4457 11.2806C17.6493 11.0885 17.7718 10.8259 17.7882 10.5464C17.8046 10.267 17.7136 9.99188 17.534 9.77724C17.3544 9.5626 17.0995 9.42466 16.8216 9.3916L16.6931 9.38391Z" fill="#BB0808"/>
</g>
</svg>
