<svg width="16" height="16" viewBox="0 0 16 16" fill="none" xmlns="http://www.w3.org/2000/svg">
<path d="M8.0328 15.5695C7.00697 15.5695 6.04294 15.3748 5.14071 14.9855C4.23848 14.5962 3.45366 14.0678 2.78625 13.4004C2.11885 12.733 1.59049 11.9482 1.20117 11.046C0.811847 10.1437 0.617188 9.17972 0.617188 8.15389C0.617188 7.12807 0.811847 6.16404 1.20117 5.2618C1.59049 4.35957 2.11885 3.57475 2.78625 2.90735C3.45366 2.23994 4.23848 1.71158 5.14071 1.32226C6.04294 0.932941 7.00697 0.738281 8.0328 0.738281H13.9653C14.3731 0.738281 14.7223 0.883504 15.0127 1.17395C15.3032 1.46439 15.4484 1.81354 15.4484 2.2214V8.15389C15.4484 9.17972 15.2538 10.1437 14.8644 11.046C14.4751 11.9482 13.9468 12.733 13.2793 13.4004C12.6119 14.0678 11.8271 14.5962 10.9249 14.9855C10.0227 15.3748 9.05863 15.5695 8.0328 15.5695ZM4.32499 10.3786H9.51592V8.89545L11.7406 10.3786V5.92921L9.51592 7.41233V5.92921H4.32499V10.3786Z" fill="#005E5D"/>
</svg>
