<svg width="13" height="12" viewBox="0 0 13 12" fill="none" xmlns="http://www.w3.org/2000/svg">
<path id="favorite" d="M6.5026 11.9197L5.58125 11.0936C4.51163 10.1299 3.62734 9.29857 2.92839 8.59961C2.22943 7.90065 1.67344 7.27318 1.26042 6.71719C0.847396 6.1612 0.558811 5.65022 0.394661 5.18425C0.230512 4.71827 0.148438 4.24171 0.148438 3.75456C0.148438 2.75907 0.482031 1.92773 1.14922 1.26055C1.81641 0.593359 2.64774 0.259766 3.64323 0.259766C4.19392 0.259766 4.71814 0.376259 5.21589 0.609245C5.71363 0.842231 6.14253 1.17053 6.5026 1.59414C6.86267 1.17053 7.29158 0.842231 7.78932 0.609245C8.28707 0.376259 8.81129 0.259766 9.36198 0.259766C10.3575 0.259766 11.1888 0.593359 11.856 1.26055C12.5232 1.92773 12.8568 2.75907 12.8568 3.75456C12.8568 4.24171 12.7747 4.71827 12.6105 5.18425C12.4464 5.65022 12.1578 6.1612 11.7448 6.71719C11.3318 7.27318 10.7758 7.90065 10.0768 8.59961C9.37786 9.29857 8.49358 10.1299 7.42396 11.0936L6.5026 11.9197ZM6.5026 10.204C7.51927 9.29327 8.3559 8.51224 9.0125 7.86094C9.6691 7.20964 10.188 6.64306 10.5693 6.1612C10.9505 5.67934 11.2153 5.25043 11.3635 4.87448C11.5118 4.49852 11.5859 4.12522 11.5859 3.75456C11.5859 3.11914 11.3741 2.58963 10.9505 2.16602C10.5269 1.7424 9.9974 1.5306 9.36198 1.5306C8.86424 1.5306 8.40356 1.67092 7.97995 1.95156C7.55634 2.23221 7.2651 2.58963 7.10625 3.02383H5.89896C5.7401 2.58963 5.44887 2.23221 5.02526 1.95156C4.60165 1.67092 4.14097 1.5306 3.64323 1.5306C3.00781 1.5306 2.4783 1.7424 2.05469 2.16602C1.63108 2.58963 1.41927 3.11914 1.41927 3.75456C1.41927 4.12522 1.4934 4.49852 1.64167 4.87448C1.78993 5.25043 2.05469 5.67934 2.43594 6.1612C2.81719 6.64306 3.33611 7.20964 3.99271 7.86094C4.64931 8.51224 5.48594 9.29327 6.5026 10.204Z" fill="#464949"/>
</svg>
