<svg width="23" height="21" viewBox="0 0 23 21" fill="none" xmlns="http://www.w3.org/2000/svg">
<path id="Vector" d="M11.6005 0.525391C11.7924 0.525391 11.9764 0.601603 12.1121 0.737262C12.2477 0.872921 12.3239 1.05691 12.3239 1.24877V8.83408L13.0473 9.35057V5.9073C13.0473 4.53289 14.1613 3.41889 15.5357 3.41889C16.2938 3.41889 17.0157 3.80951 17.6234 4.27537C18.2469 4.75569 18.8488 5.39371 19.3826 6.05342C20.4474 7.36707 21.3314 8.8688 21.6685 9.64136C21.9231 10.2273 22.2371 11.3196 22.4729 12.5508C22.7116 13.7906 22.8823 15.2374 22.8201 16.5424C22.7622 17.7967 22.4844 19.132 21.6092 19.9133C20.6398 20.7813 19.2625 20.7177 17.6436 19.9075L15.0467 18.6098C14.4459 18.3094 13.9407 17.8477 13.5875 17.2763C13.2344 16.7049 13.0473 16.0465 13.0473 15.3748V11.1286L11.6005 10.0942L10.1538 11.1286V9.5155C10.0091 9.5155 9.86155 9.5589 9.73424 9.65004L6.11736 12.2339C6.03668 12.2877 5.96762 12.357 5.91428 12.438C5.86094 12.5189 5.82441 12.6097 5.80685 12.705C5.78929 12.8003 5.79107 12.8982 5.81207 12.9928C5.83308 13.0875 5.87289 13.1769 5.92913 13.2558C5.98537 13.3348 6.05691 13.4016 6.13948 13.4524C6.22206 13.5031 6.31399 13.5367 6.40982 13.5513C6.50565 13.5658 6.60342 13.5609 6.69733 13.5369C6.79124 13.5129 6.87936 13.4703 6.95648 13.4116L10.1538 11.1286V15.3748C10.1538 16.0465 9.96671 16.7049 9.61357 17.2763C9.26043 17.8477 8.75517 18.3094 8.15439 18.6098L5.55747 19.9075C3.93711 20.7177 2.5627 20.7799 1.59193 19.9133C0.716645 19.132 0.437422 17.7967 0.379552 16.5424C0.318789 15.2374 0.489505 13.7906 0.726772 12.5508C0.964039 11.3181 1.27654 10.2273 1.53406 9.63992C1.8697 8.8688 2.75367 7.36707 3.81848 6.05342C4.35378 5.39371 4.95418 4.75569 5.57773 4.27537C6.18536 3.80951 6.90729 3.41889 7.66539 3.41889C9.0398 3.41889 10.1538 4.53289 10.1538 5.9073V9.35057L10.8772 8.83408V1.24877C10.8772 1.05691 10.9534 0.872921 11.089 0.737262C11.2247 0.601603 11.4087 0.525391 11.6005 0.525391ZM16.2446 13.4116C16.3217 13.4703 16.4099 13.5129 16.5038 13.5369C16.5977 13.5609 16.6954 13.5658 16.7913 13.5513C16.8871 13.5367 16.979 13.5031 17.0616 13.4524C17.1442 13.4016 17.2157 13.3348 17.272 13.2558C17.3282 13.1769 17.368 13.0875 17.389 12.9928C17.41 12.8982 17.4118 12.8003 17.3942 12.705C17.3767 12.6097 17.3402 12.5189 17.2868 12.438C17.2335 12.357 17.1644 12.2877 17.0837 12.2339L13.4669 9.65004C13.3445 9.56248 13.1978 9.51543 13.0473 9.5155V11.1286L16.2446 13.413V13.4116Z" fill="#005E5D"/>
</svg>
