<svg width="11" height="12" viewBox="0 0 11 12" fill="none" xmlns="http://www.w3.org/2000/svg">
<path id="Vector" d="M8.64077 0.35791L6.83469 2.1639L7.43393 2.76314L8.21708 1.97999V9.72617L7.43393 8.94299L6.83469 9.54224L8.64077 11.3482L10.4469 9.54224L9.84761 8.94299L9.06446 9.72617V1.97999L9.84761 2.76316L10.4469 2.1639L8.64077 0.35791ZM2.93404 0.363983C2.38404 0.435422 1.88533 1.08059 1.88533 1.91599C1.88533 2.37636 2.04471 2.78352 2.27831 3.06502L2.557 3.40075L2.1282 3.48134C1.82456 3.53843 1.60193 3.69884 1.41162 3.96002C1.22131 4.22123 1.07582 4.58516 0.973853 5.00454C0.789241 5.76436 0.748637 6.69208 0.742188 7.50988H1.75123L2.0283 11.2251C2.73196 11.3839 3.48324 11.3783 4.16094 11.2257L4.40606 7.50988H5.36681C5.36617 6.68208 5.35558 5.74155 5.18829 4.97597C5.09607 4.55385 4.95625 4.19046 4.76366 3.93222C4.571 3.67401 4.33809 3.51453 3.99718 3.46171L3.55955 3.39392L3.8358 3.04781C4.0593 2.76778 4.21081 2.36527 4.21081 1.91604C4.21081 1.02539 3.65401 0.366172 3.04804 0.366172L2.93404 0.363983Z" fill="#005E5D"/>
</svg>
