<svg width="17" height="21" viewBox="0 0 17 21" fill="none" xmlns="http://www.w3.org/2000/svg">
<path id="privacy_tip" d="M7.49566 15.7259H9.58594V9.45508H7.49566V15.7259ZM8.5408 7.3648C8.83692 7.3648 9.08514 7.26464 9.28546 7.06432C9.48578 6.86401 9.58594 6.61578 9.58594 6.31966C9.58594 6.02354 9.48578 5.77532 9.28546 5.575C9.08514 5.37468 8.83692 5.27452 8.5408 5.27452C8.24468 5.27452 7.99645 5.37468 7.79614 5.575C7.59582 5.77532 7.49566 6.02354 7.49566 6.31966C7.49566 6.61578 7.59582 6.86401 7.79614 7.06432C7.99645 7.26464 8.24468 7.3648 8.5408 7.3648ZM8.5408 20.9516C6.11956 20.3419 4.12073 18.9528 2.54431 16.7841C0.967896 14.6155 0.179688 12.2073 0.179688 9.55959V3.18425L8.5408 0.0488281L16.9019 3.18425V9.55959C16.9019 12.2073 16.1137 14.6155 14.5373 16.7841C12.9609 18.9528 10.962 20.3419 8.5408 20.9516Z" fill="white"/>
</svg>
