<svg width="11" height="14" viewBox="0 0 11 14" fill="none" xmlns="http://www.w3.org/2000/svg">
<path id="location_on" d="M5.66784 6.94564C6.03414 6.94564 6.34772 6.81522 6.60857 6.55437C6.86942 6.29352 6.99984 5.97994 6.99984 5.61364C6.99984 5.24734 6.86942 4.93377 6.60857 4.67292C6.34772 4.41207 6.03414 4.28164 5.66784 4.28164C5.30154 4.28164 4.98797 4.41207 4.72712 4.67292C4.46627 4.93377 4.33584 5.24734 4.33584 5.61364C4.33584 5.97994 4.46627 6.29352 4.72712 6.55437C4.98797 6.81522 5.30154 6.94564 5.66784 6.94564ZM5.66784 11.8407C7.02204 10.5975 8.02659 9.46812 8.68149 8.45247C9.33639 7.43682 9.66384 6.53494 9.66384 5.74684C9.66384 4.53694 9.27812 3.54627 8.50667 2.77482C7.73522 2.00337 6.78894 1.61764 5.66784 1.61764C4.54674 1.61764 3.60047 2.00337 2.82902 2.77482C2.05757 3.54627 1.67184 4.53694 1.67184 5.74684C1.67184 6.53494 1.99929 7.43682 2.65419 8.45247C3.30909 9.46812 4.31364 10.5975 5.66784 11.8407ZM5.66784 13.6056C3.88074 12.0849 2.54597 10.6725 1.66352 9.36822C0.781069 8.06397 0.339844 6.85684 0.339844 5.74684C0.339844 4.08184 0.875419 2.75539 1.94657 1.76749C3.01772 0.779594 4.25814 0.285645 5.66784 0.285645C7.07754 0.285645 8.31797 0.779594 9.38912 1.76749C10.4603 2.75539 10.9958 4.08184 10.9958 5.74684C10.9958 6.85684 10.5546 8.06397 9.67217 9.36822C8.78972 10.6725 7.45494 12.0849 5.66784 13.6056Z" fill="#005E5D"/>
</svg>
