<svg width="20" height="19" viewBox="0 0 20 19" fill="none" xmlns="http://www.w3.org/2000/svg">
<path id="Vector" d="M17.8589 9.49978H7.93012M15.7687 12.6352L18.9041 9.49978L15.7687 6.36437M10.543 4.27409V3.22895C10.543 2.67457 10.3227 2.1429 9.93074 1.7509C9.53874 1.3589 9.00707 1.13867 8.45269 1.13867H3.227C2.67262 1.13867 2.14095 1.3589 1.74895 1.7509C1.35694 2.1429 1.13672 2.67457 1.13672 3.22895V15.7706C1.13672 16.325 1.35694 16.8567 1.74895 17.2487C2.14095 17.6407 2.67262 17.8609 3.227 17.8609H8.45269C9.00707 17.8609 9.53874 17.6407 9.93074 17.2487C10.3227 16.8567 10.543 16.325 10.543 15.7706V14.7255" stroke="white" stroke-width="2.09028" stroke-linecap="round" stroke-linejoin="round"/>
</svg>
