<svg width="12" height="11" viewBox="0 0 12 11" fill="none" xmlns="http://www.w3.org/2000/svg">
<path id="mail" d="M1.36096 10.1465C1.04578 10.1465 0.775962 10.0342 0.551515 9.80979C0.327068 9.58534 0.214844 9.31552 0.214844 9.00034V2.12365C0.214844 1.80847 0.327068 1.53866 0.551515 1.31421C0.775962 1.08976 1.04578 0.977539 1.36096 0.977539H10.5299C10.8451 0.977539 11.1149 1.08976 11.3393 1.31421C11.5638 1.53866 11.676 1.80847 11.676 2.12365V9.00034C11.676 9.31552 11.5638 9.58534 11.3393 9.80979C11.1149 10.0342 10.8451 10.1465 10.5299 10.1465H1.36096ZM5.94542 6.13506L1.36096 3.26977V9.00034H10.5299V3.26977L5.94542 6.13506ZM5.94542 4.98894L10.5299 2.12365H1.36096L5.94542 4.98894ZM1.36096 3.26977V2.12365V9.00034V3.26977Z" fill="#005E5D"/>
</svg>
