<svg width="25" height="25" viewBox="0 0 25 25" fill="none" xmlns="http://www.w3.org/2000/svg">
<g id="Group">
<path id="Vector" d="M15.3345 19.263C15.3346 19.7595 15.1471 20.2378 14.8095 20.6019C14.4718 20.966 14.009 21.189 13.5139 21.2263L13.3663 21.2312H11.3981C10.9015 21.2313 10.4233 21.0438 10.0592 20.7062C9.69505 20.3685 9.47203 19.9057 9.43478 19.4106L9.42986 19.263H15.3345ZM12.3822 2.5332C14.1683 2.53317 15.8846 3.22689 17.1691 4.46802C18.4535 5.70916 19.2057 7.40067 19.267 9.18574L19.2709 9.42193V13.1261L21.0639 16.7122C21.1422 16.8686 21.1813 17.0417 21.1781 17.2167C21.1748 17.3916 21.1292 17.5631 21.0451 17.7165C20.961 17.8699 20.841 18.0007 20.6954 18.0976C20.5497 18.1945 20.3827 18.2547 20.2087 18.273L20.0956 18.2789H4.66877C4.49376 18.2789 4.32135 18.2365 4.16631 18.1553C4.01127 18.0742 3.87822 17.9566 3.77857 17.8127C3.67892 17.6689 3.61563 17.503 3.59413 17.3293C3.57264 17.1556 3.59357 16.9793 3.65514 16.8155L3.70041 16.7122L5.49345 13.1261V9.42193C5.49345 7.59492 6.21922 5.84275 7.51111 4.55086C8.803 3.25898 10.5552 2.5332 12.3822 2.5332Z" fill="black"/>
</g>
</svg>
