<svg width="21" height="21" viewBox="0 0 21 21" fill="none" xmlns="http://www.w3.org/2000/svg">
<path id="Vector" fill-rule="evenodd" clip-rule="evenodd" d="M0.633316 6.13467C0.0898438 7.12442 0.0898438 8.3211 0.0898438 10.7124V12.3031C0.0898438 16.3791 0.0898436 18.4182 1.31475 19.6849C2.5386 20.9516 4.50974 20.9516 8.45096 20.9516H12.6315C16.5727 20.9516 18.5439 20.9516 19.7677 19.6849C20.9926 18.4182 20.9926 16.3802 20.9926 12.3031V10.7134C20.9926 8.3211 20.9926 7.12546 20.4492 6.13467C19.9078 5.14284 18.9159 4.52829 16.9333 3.29712L14.843 2.0001C12.7475 0.698905 11.6992 0.0488281 10.5412 0.0488281C9.38322 0.0488281 8.33599 0.698905 6.23944 2.0001L4.14916 3.29712C2.16653 4.52829 1.17574 5.14284 0.633316 6.13467ZM9.75738 16.7711C9.75738 16.9789 9.83996 17.1783 9.98697 17.3253C10.134 17.4723 10.3333 17.5549 10.5412 17.5549C10.7491 17.5549 10.9485 17.4723 11.0955 17.3253C11.2425 17.1783 11.3251 16.9789 11.3251 16.7711V13.6356C11.3251 13.4277 11.2425 13.2284 11.0955 13.0814C10.9485 12.9344 10.7491 12.8518 10.5412 12.8518C10.3333 12.8518 10.134 12.9344 9.98697 13.0814C9.83996 13.2284 9.75738 13.4277 9.75738 13.6356V16.7711Z" fill="white"/>
</svg>
