<svg width="21" height="17" viewBox="0 0 21 17" fill="none" xmlns="http://www.w3.org/2000/svg">
<path id="wallet" d="M4.2704 16.8609C3.12075 16.8609 2.13657 16.4515 1.31788 15.6329C0.49919 14.8142 0.0898438 13.83 0.0898438 12.6803V4.31923C0.0898438 3.16957 0.49919 2.1854 1.31788 1.36671C2.13657 0.548018 3.12075 0.138672 4.2704 0.138672H16.8121C17.9617 0.138672 18.9459 0.548018 19.7646 1.36671C20.5833 2.1854 20.9926 3.16957 20.9926 4.31923V12.6803C20.9926 13.83 20.5833 14.8142 19.7646 15.6329C18.9459 16.4515 17.9617 16.8609 16.8121 16.8609H4.2704ZM4.2704 4.31923H16.8121C17.1953 4.31923 17.5611 4.36277 17.9095 4.44987C18.2578 4.53696 18.5888 4.67632 18.9023 4.86793V4.31923C18.9023 3.7444 18.6977 3.25231 18.2883 2.84297C17.879 2.43362 17.3869 2.22895 16.8121 2.22895H4.2704C3.69557 2.22895 3.20349 2.43362 2.79414 2.84297C2.38479 3.25231 2.18012 3.7444 2.18012 4.31923V4.86793C2.49366 4.67632 2.82462 4.53696 3.173 4.44987C3.52138 4.36277 3.88718 4.31923 4.2704 4.31923ZM2.33689 7.71593L13.9641 10.5378C14.1208 10.5726 14.2776 10.5726 14.4344 10.5378C14.5911 10.503 14.7392 10.4333 14.8786 10.3288L18.5104 7.29787C18.3188 7.03659 18.0749 6.82321 17.7788 6.65773C17.4827 6.49225 17.1604 6.4095 16.8121 6.4095H4.2704C3.81751 6.4095 3.42122 6.52708 3.08155 6.76224C2.74188 6.9974 2.49366 7.31529 2.33689 7.71593Z" fill="white"/>
</svg>
