<svg width="26" height="19" viewBox="0 0 26 19" fill="none" xmlns="http://www.w3.org/2000/svg">
<path id="payments" d="M2.39115 18.9964C1.75722 18.9964 1.21453 18.7707 0.763093 18.3192C0.311656 17.8678 0.0859375 17.3251 0.0859375 16.6912V4.0125H2.39115V16.6912H21.9854V18.9964H2.39115ZM7.00157 14.386C6.36764 14.386 5.82495 14.1602 5.37352 13.7088C4.92208 13.2574 4.69636 12.7147 4.69636 12.0807V2.8599C4.69636 2.22597 4.92208 1.68328 5.37352 1.23184C5.82495 0.780406 6.36764 0.554688 7.00157 0.554688H23.1381C23.772 0.554688 24.3147 0.780406 24.7661 1.23184C25.2175 1.68328 25.4433 2.22597 25.4433 2.8599V12.0807C25.4433 12.7147 25.2175 13.2574 24.7661 13.7088C24.3147 14.1602 23.772 14.386 23.1381 14.386H7.00157ZM9.30678 12.0807C9.30678 11.4468 9.08106 10.9041 8.62963 10.4527C8.17819 10.0013 7.6355 9.77553 7.00157 9.77553V12.0807H9.30678ZM20.8328 12.0807H23.1381V9.77553C22.5041 9.77553 21.9614 10.0013 21.51 10.4527C21.0586 10.9041 20.8328 11.4468 20.8328 12.0807ZM15.0698 10.9281C16.0303 10.9281 16.8467 10.592 17.5191 9.91961C18.1915 9.24726 18.5276 8.43083 18.5276 7.47032C18.5276 6.50982 18.1915 5.69339 17.5191 5.02103C16.8467 4.34868 16.0303 4.0125 15.0698 4.0125C14.1093 4.0125 13.2929 4.34868 12.6205 5.02103C11.9482 5.69339 11.612 6.50982 11.612 7.47032C11.612 8.43083 11.9482 9.24726 12.6205 9.91961C13.2929 10.592 14.1093 10.9281 15.0698 10.9281ZM7.00157 5.16511C7.6355 5.16511 8.17819 4.93939 8.62963 4.48795C9.08106 4.03652 9.30678 3.49383 9.30678 2.8599H7.00157V5.16511ZM23.1381 5.16511V2.8599H20.8328C20.8328 3.49383 21.0586 4.03652 21.51 4.48795C21.9614 4.93939 22.5041 5.16511 23.1381 5.16511Z" fill="#005E5D"/>
</svg>
