<svg width="27" height="27" viewBox="0 0 27 27" fill="none" xmlns="http://www.w3.org/2000/svg">
<g id="vscode-icons:file-type-pdf2">
<path id="Vector" d="M20.1569 2.07812L24.7836 6.90108V25.2416H7.5V25.3015H24.8427V6.96178L20.1569 2.07812Z" fill="#909090"/>
<path id="Vector_2" d="M20.1 2.01953H7.44141V25.2429H24.7841V6.90319L20.1 2.01953Z" fill="#F4F4F4"/>
<path id="Vector_3" d="M7.31356 3.26562H2V8.94257H18.714V3.26562H7.31356Z" fill="#7A7B7C"/>
<path id="Vector_4" d="M18.8043 8.84712H2.10938V3.16602H18.8043V8.84712Z" fill="#BB0808"/>
<path id="Vector_5" d="M7.64542 4.12587H6.55859V8.11728H7.41342V6.77101L7.60218 6.78182C7.78559 6.77867 7.96729 6.74581 8.14019 6.68453C8.29178 6.63239 8.43124 6.55008 8.55014 6.44255C8.67113 6.34012 8.76652 6.21085 8.82871 6.06503C8.91211 5.82263 8.9419 5.56502 8.91602 5.30999C8.91083 5.12781 8.87889 4.94737 8.82122 4.77448C8.76873 4.64967 8.69083 4.53715 8.59248 4.4441C8.49412 4.35104 8.37747 4.27948 8.24995 4.23397C8.1397 4.19406 8.02578 4.16509 7.90985 4.14749C7.82206 4.13395 7.73341 4.12672 7.64459 4.12587M7.48743 6.03343H7.41342V4.80275H7.57391C7.64474 4.79764 7.71581 4.80851 7.78188 4.83457C7.84794 4.86062 7.90731 4.90118 7.95559 4.95326C8.05564 5.08715 8.10908 5.25012 8.10776 5.41726C8.10776 5.62182 8.10776 5.80725 7.92316 5.93781C7.79016 6.01095 7.63879 6.04472 7.48743 6.03343ZM10.54 4.11506C10.4477 4.11506 10.3579 4.12171 10.2947 4.12421L10.0968 4.1292H9.44821V8.12061H10.2116C10.5033 8.1286 10.7937 8.07916 11.0664 7.97509C11.2858 7.88804 11.4802 7.74773 11.6318 7.5668C11.7793 7.38424 11.8852 7.17168 11.942 6.94397C12.0073 6.68609 12.0392 6.42086 12.0368 6.15484C12.0529 5.84065 12.0286 5.52568 11.9645 5.21769C11.9036 4.99098 11.7896 4.78204 11.6318 4.60817C11.5081 4.46777 11.3566 4.35452 11.187 4.27555C11.0413 4.20813 10.888 4.15843 10.7304 4.12754C10.6678 4.11719 10.6043 4.11246 10.5409 4.1134M10.3895 7.38719H10.3064V4.83934H10.3172C10.4886 4.81961 10.6621 4.85054 10.8161 4.92831C10.9289 5.01839 11.0208 5.13187 11.0855 5.26093C11.1553 5.39675 11.1956 5.54582 11.2036 5.69832C11.2111 5.88126 11.2036 6.03094 11.2036 6.15484C11.207 6.29756 11.1978 6.44031 11.1762 6.58142C11.1505 6.7263 11.1031 6.86647 11.0356 6.99719C10.9592 7.11873 10.8559 7.22113 10.7338 7.29655C10.6312 7.3629 10.5097 7.39386 10.3879 7.38469M14.6121 4.1292H12.5914V8.12061H13.4463V6.53735H14.5273V5.79561H13.4463V4.87093H14.6104V4.1292" fill="#464648"/>
<path id="Vector_6" d="M18.2278 17.1983C18.2278 17.1983 20.8788 16.7177 20.8788 17.6232C20.8788 18.5288 19.2365 18.1604 18.2278 17.1983ZM16.2679 17.2673C15.8467 17.3604 15.4362 17.4967 15.043 17.6739L15.3756 16.9256C15.7082 16.1772 16.0533 15.1569 16.0533 15.1569C16.4502 15.8249 16.912 16.4521 17.432 17.0295C17.0399 17.088 16.6512 17.1679 16.2679 17.269V17.2673ZM15.2184 11.8623C15.2184 11.0732 15.4737 10.8578 15.6725 10.8578C15.8712 10.8578 16.0949 10.9534 16.1024 11.6386C16.0376 12.3276 15.8934 13.0068 15.6725 13.6626C15.3699 13.112 15.2133 12.4931 15.2176 11.8648L15.2184 11.8623ZM11.3526 20.6068C10.5393 20.1204 13.0581 18.6227 13.5146 18.5745C13.5121 18.5753 12.2041 21.1157 11.3526 20.6068ZM21.6529 17.7305C21.6446 17.6473 21.5698 16.7268 19.9316 16.7659C19.2488 16.7549 18.5664 16.803 17.8919 16.9098C17.2385 16.2515 16.6758 15.509 16.2188 14.702C16.5067 13.87 16.681 13.0029 16.7368 12.1242C16.7127 11.1264 16.4741 10.5543 15.7091 10.5626C14.944 10.5709 14.8326 11.2403 14.9332 12.2365C15.0318 12.9059 15.2177 13.5595 15.4862 14.1806C15.4862 14.1806 15.1328 15.2808 14.6655 16.3751C14.1981 17.4694 13.8788 18.0432 13.8788 18.0432C13.0662 18.3077 12.3012 18.7007 11.6129 19.2073C10.9277 19.8451 10.6491 20.3349 11.01 20.8247C11.321 21.2471 12.4095 21.3427 13.3824 20.068C13.8993 19.4096 14.3716 18.7173 14.796 17.9958C14.796 17.9958 16.2795 17.5891 16.741 17.4777C17.2025 17.3663 17.7605 17.2781 17.7605 17.2781C17.7605 17.2781 19.1151 18.641 20.4214 18.5928C21.7278 18.5446 21.6646 17.812 21.6563 17.7322" fill="#BB0808"/>
<path id="Vector_7" d="M20.0352 2.08203V6.96569H24.7192L20.0352 2.08203Z" fill="#909090"/>
<path id="Vector_8" d="M20.1016 2.01953V6.90319H24.7856L20.1016 2.01953Z" fill="#F4F4F4"/>
<path id="Vector_9" d="M7.57901 4.06142H6.49219V8.05283H7.35034V6.70739L7.53993 6.7182C7.72335 6.71504 7.90504 6.68219 8.07794 6.62091C8.22952 6.56875 8.36898 6.48644 8.48789 6.37893C8.60797 6.27623 8.70249 6.14697 8.76396 6.00141C8.84736 5.75901 8.87715 5.5014 8.85128 5.24637C8.84608 5.06418 8.81414 4.88375 8.75648 4.71085C8.70399 4.58605 8.62609 4.47353 8.52773 4.38048C8.42938 4.28742 8.31273 4.21586 8.18521 4.17035C8.07445 4.13005 7.95997 4.1008 7.84345 4.08304C7.75566 4.06949 7.66701 4.06227 7.57818 4.06142M7.42102 5.96898H7.34701V4.7383H7.50833C7.57916 4.73319 7.65024 4.74406 7.7163 4.77011C7.78237 4.79616 7.84173 4.83673 7.89001 4.8888C7.99006 5.0227 8.04351 5.18567 8.04218 5.35281C8.04218 5.55737 8.04218 5.7428 7.85758 5.87335C7.72459 5.9465 7.57321 5.97943 7.42185 5.96815M10.4736 4.05061C10.3813 4.05061 10.2915 4.05726 10.2283 4.05976L10.0329 4.06475H9.3843V8.05615H10.1477C10.4394 8.06415 10.7298 8.01471 11.0025 7.91063C11.2219 7.82359 11.4163 7.68327 11.5679 7.50235C11.7154 7.31978 11.8213 7.10723 11.8781 6.87952C11.9434 6.62163 11.9753 6.35641 11.9729 6.09038C11.989 5.77619 11.9647 5.46123 11.9005 5.15324C11.8397 4.92653 11.7256 4.71758 11.5679 4.54371C11.4442 4.40332 11.2927 4.29007 11.1231 4.2111C10.9773 4.14367 10.8241 4.09398 10.6665 4.06308C10.6039 4.05273 10.5404 4.048 10.4769 4.04895M10.3256 7.32273H10.2424V4.77488H10.2533C10.4247 4.75516 10.5981 4.78609 10.7522 4.86386C10.865 4.95394 10.9569 5.06742 11.0216 5.19648C11.0914 5.3323 11.1317 5.48137 11.1397 5.63387C11.1472 5.81681 11.1397 5.96648 11.1397 6.09038C11.1431 6.23311 11.1339 6.37585 11.1122 6.51697C11.0866 6.66185 11.0392 6.80202 10.9717 6.93274C10.8953 7.05427 10.792 7.15668 10.6699 7.23209C10.5673 7.29845 10.4458 7.32941 10.3239 7.32024M14.5457 4.06475H12.525V8.05615H13.3799V6.47289H14.4609V5.73116H13.3799V4.80648H14.544V4.06475" fill="white"/>
</g>
</svg>
