<svg width="20" height="21" viewBox="0 0 20 21" fill="none" xmlns="http://www.w3.org/2000/svg">
<path id="Vector" fill-rule="evenodd" clip-rule="evenodd" d="M0.57972 6.21415C0.0703125 7.14186 0.0703125 8.26353 0.0703125 10.5049V11.9959C0.0703125 15.8165 0.0703124 17.7277 1.21844 18.915C2.36558 20.1024 4.21317 20.1024 7.90735 20.1024H11.8259C15.5201 20.1024 17.3676 20.1024 18.5148 18.915C19.6629 17.7277 19.6629 15.8175 19.6629 11.9959V10.5059C19.6629 8.26353 19.6629 7.14284 19.1535 6.21415C18.646 5.28448 17.7164 4.70846 15.858 3.55445L13.8988 2.33873C11.9346 1.1191 10.952 0.509766 9.86661 0.509766C8.78118 0.509766 7.79959 1.1191 5.83445 2.33873L3.87519 3.55445C2.01684 4.70846 1.08815 5.28448 0.57972 6.21415ZM9.13189 16.1838C9.13189 16.3787 9.2093 16.5656 9.34708 16.7034C9.48487 16.8412 9.67175 16.9186 9.86661 16.9186C10.0615 16.9186 10.2483 16.8412 10.3861 16.7034C10.5239 16.5656 10.6013 16.3787 10.6013 16.1838V13.245C10.6013 13.0501 10.5239 12.8632 10.3861 12.7254C10.2483 12.5876 10.0615 12.5102 9.86661 12.5102C9.67175 12.5102 9.48487 12.5876 9.34708 12.7254C9.2093 12.8632 9.13189 13.0501 9.13189 13.245V16.1838Z" fill="#005E5D"/>
</svg>
