<svg width="16" height="16" viewBox="0 0 16 16" fill="none" xmlns="http://www.w3.org/2000/svg">
<path d="M10.2964 11.1099L11.3345 10.0717L8.59077 7.32797V3.91679H7.10764V7.92122L10.2964 11.1099ZM7.84921 15.0402C6.82338 15.0402 5.85935 14.8455 4.95712 14.4562C4.05488 14.0669 3.27007 13.5385 2.60266 12.8711C1.93526 12.2037 1.40689 11.4189 1.01757 10.5167C0.628254 9.61445 0.433594 8.65042 0.433594 7.6246C0.433594 6.59877 0.628254 5.63474 1.01757 4.73251C1.40689 3.83027 1.93526 3.04546 2.60266 2.37805C3.27007 1.71065 4.05488 1.18228 4.95712 0.792964C5.85935 0.403644 6.82338 0.208984 7.84921 0.208984C8.87503 0.208984 9.83906 0.403644 10.7413 0.792964C11.6435 1.18228 12.4283 1.71065 13.0958 2.37805C13.7632 3.04546 14.2915 3.83027 14.6808 4.73251C15.0702 5.63474 15.2648 6.59877 15.2648 7.6246C15.2648 8.65042 15.0702 9.61445 14.6808 10.5167C14.2915 11.4189 13.7632 12.2037 13.0958 12.8711C12.4283 13.5385 11.6435 14.0669 10.7413 14.4562C9.83906 14.8455 8.87503 15.0402 7.84921 15.0402Z" fill="#005E5D"/>
</svg>
