<svg width="22" height="22" viewBox="0 0 22 22" fill="none" xmlns="http://www.w3.org/2000/svg">
<path id="Vector" d="M2.7668 17.2752C3.46435 19.2013 4.92193 21.4397 11.0958 21.4397C13.5529 21.4397 16.3743 21.3668 18.3837 19.3574C19.4248 18.3163 21.5071 16.2341 21.5071 9.98732C21.5071 3.74056 19.4248 2.69944 17.3426 2.69944C15.9058 2.69944 14.2192 2.69944 13.1781 4.78169V4.81292C12.9907 5.15272 12.7035 5.42679 12.3553 5.5981C12.0071 5.7694 11.6147 5.82967 11.2312 5.77076C10.0547 5.625 10.0547 5.16691 10.0547 4.78169V0.617188H7.97243V4.78169C7.96094 5.19498 8.03388 5.60627 8.18677 5.99041C8.33967 6.37455 8.56932 6.72347 8.86168 7.01582C9.15403 7.30817 9.50294 7.53782 9.88708 7.69072C10.2712 7.84362 10.6825 7.91655 11.0958 7.90507C12.1369 7.90507 12.1369 9.75827 12.1369 11.0284C12.1369 12.9962 11.6164 14.4225 10.0547 15.1929C7.64968 16.3902 5.25509 16.2341 4.44301 14.6412C4.35939 14.3902 4.2134 14.1646 4.01873 13.9855C3.82406 13.8064 3.58709 13.6797 3.33006 13.6173C3.07302 13.5549 2.80434 13.5587 2.54921 13.6286C2.29408 13.6984 2.06086 13.8319 1.87143 14.0165C1.43059 14.4275 1.09324 14.9371 0.886966 15.5034C0.680688 16.0698 0.611326 16.6769 0.684548 17.2752V21.4397H2.7668V17.2752Z" fill="#005E5D"/>
</svg>
