<svg width="17" height="21" viewBox="0 0 17 21" fill="none" xmlns="http://www.w3.org/2000/svg">
<path id="upload_file" d="M7.91016 17.0894H9.91016V12.9144L11.5102 14.5144L12.9102 13.0894L8.91016 9.08935L4.91016 13.0894L6.33516 14.4894L7.91016 12.9144V17.0894ZM2.91016 20.0894C2.36016 20.0894 1.88932 19.8935 1.49766 19.5019C1.10599 19.1102 0.910156 18.6394 0.910156 18.0894V2.08936C0.910156 1.53936 1.10599 1.06852 1.49766 0.676855C1.88932 0.285189 2.36016 0.0893555 2.91016 0.0893555H10.9102L16.9102 6.08935V18.0894C16.9102 18.6394 16.7143 19.1102 16.3227 19.5019C15.931 19.8935 15.4602 20.0894 14.9102 20.0894H2.91016ZM9.91016 7.08935V2.08936H2.91016V18.0894H14.9102V7.08935H9.91016Z" fill="black"/>
</svg>
