<svg width="10" height="10" viewBox="0 0 10 10" fill="none" xmlns="http://www.w3.org/2000/svg">
<path id="call" d="M8.98416 9.81953C7.90453 9.81953 6.8521 9.57891 5.82687 9.09768C4.80164 8.61645 3.89358 7.98039 3.10269 7.1895C2.31179 6.3986 1.67573 5.49054 1.1945 4.46531C0.713272 3.44008 0.472656 2.38765 0.472656 1.30802C0.472656 1.15738 0.522872 1.03184 0.623302 0.931408C0.723733 0.830977 0.849271 0.780762 0.999918 0.780762H3.03364C3.15081 0.780762 3.25542 0.818423 3.34749 0.893746C3.43955 0.969069 3.49395 1.06532 3.51069 1.18248L3.83709 2.94002C3.85382 3.05719 3.85173 3.1639 3.83081 3.26014C3.80989 3.35639 3.76176 3.44218 3.68644 3.5175L2.48127 4.74778C2.83278 5.35036 3.27216 5.91528 3.79942 6.44254C4.32668 6.9698 4.90835 7.42593 5.54441 7.81091L6.72447 6.63085C6.79979 6.55553 6.89813 6.49904 7.01948 6.46137C7.14084 6.42371 7.2601 6.41325 7.37727 6.42999L9.1097 6.7815C9.22687 6.8066 9.32311 6.8631 9.39844 6.95097C9.47376 7.03885 9.51142 7.14137 9.51142 7.25854V9.29226C9.51142 9.44291 9.46121 9.56845 9.36077 9.66888C9.26034 9.76931 9.13481 9.81953 8.98416 9.81953Z" fill="#005E5D"/>
</svg>
