<svg width="19" height="21" viewBox="0 0 19 21" fill="none" xmlns="http://www.w3.org/2000/svg">
<path id="calendar_month" d="M2.61619 20.6737C2.07103 20.6737 1.60434 20.4795 1.21612 20.0913C0.8279 19.7031 0.633789 19.2364 0.633789 18.6913V4.81442C0.633789 4.26926 0.8279 3.80257 1.21612 3.41435C1.60434 3.02612 2.07103 2.83201 2.61619 2.83201H3.6074V0.849609H5.5898V2.83201H13.5194V0.849609H15.5018V2.83201H16.493C17.0382 2.83201 17.5049 3.02612 17.8931 3.41435C18.2813 3.80257 18.4754 4.26926 18.4754 4.81442V18.6913C18.4754 19.2364 18.2813 19.7031 17.8931 20.0913C17.5049 20.4795 17.0382 20.6737 16.493 20.6737H2.61619ZM2.61619 18.6913H16.493V8.77923H2.61619V18.6913ZM2.61619 6.79682H16.493V4.81442H2.61619V6.79682ZM9.55461 12.744C9.27377 12.744 9.03836 12.649 8.84838 12.4591C8.6584 12.2691 8.56341 12.0337 8.56341 11.7528C8.56341 11.472 8.6584 11.2366 8.84838 11.0466C9.03836 10.8566 9.27377 10.7616 9.55461 10.7616C9.83545 10.7616 10.0709 10.8566 10.2608 11.0466C10.4508 11.2366 10.5458 11.472 10.5458 11.7528C10.5458 12.0337 10.4508 12.2691 10.2608 12.4591C10.0709 12.649 9.83545 12.744 9.55461 12.744ZM5.5898 12.744C5.30896 12.744 5.07355 12.649 4.88357 12.4591C4.69359 12.2691 4.5986 12.0337 4.5986 11.7528C4.5986 11.472 4.69359 11.2366 4.88357 11.0466C5.07355 10.8566 5.30896 10.7616 5.5898 10.7616C5.87064 10.7616 6.10605 10.8566 6.29603 11.0466C6.48601 11.2366 6.581 11.472 6.581 11.7528C6.581 12.0337 6.48601 12.2691 6.29603 12.4591C6.10605 12.649 5.87064 12.744 5.5898 12.744ZM13.5194 12.744C13.2386 12.744 13.0032 12.649 12.8132 12.4591C12.6232 12.2691 12.5282 12.0337 12.5282 11.7528C12.5282 11.472 12.6232 11.2366 12.8132 11.0466C13.0032 10.8566 13.2386 10.7616 13.5194 10.7616C13.8003 10.7616 14.0357 10.8566 14.2257 11.0466C14.4156 11.2366 14.5106 11.472 14.5106 11.7528C14.5106 12.0337 14.4156 12.2691 14.2257 12.4591C14.0357 12.649 13.8003 12.744 13.5194 12.744ZM9.55461 16.7088C9.27377 16.7088 9.03836 16.6139 8.84838 16.4239C8.6584 16.2339 8.56341 15.9985 8.56341 15.7176C8.56341 15.4368 8.6584 15.2014 8.84838 15.0114C9.03836 14.8214 9.27377 14.7264 9.55461 14.7264C9.83545 14.7264 10.0709 14.8214 10.2608 15.0114C10.4508 15.2014 10.5458 15.4368 10.5458 15.7176C10.5458 15.9985 10.4508 16.2339 10.2608 16.4239C10.0709 16.6139 9.83545 16.7088 9.55461 16.7088ZM5.5898 16.7088C5.30896 16.7088 5.07355 16.6139 4.88357 16.4239C4.69359 16.2339 4.5986 15.9985 4.5986 15.7176C4.5986 15.4368 4.69359 15.2014 4.88357 15.0114C5.07355 14.8214 5.30896 14.7264 5.5898 14.7264C5.87064 14.7264 6.10605 14.8214 6.29603 15.0114C6.48601 15.2014 6.581 15.4368 6.581 15.7176C6.581 15.9985 6.48601 16.2339 6.29603 16.4239C6.10605 16.6139 5.87064 16.7088 5.5898 16.7088ZM13.5194 16.7088C13.2386 16.7088 13.0032 16.6139 12.8132 16.4239C12.6232 16.2339 12.5282 15.9985 12.5282 15.7176C12.5282 15.4368 12.6232 15.2014 12.8132 15.0114C13.0032 14.8214 13.2386 14.7264 13.5194 14.7264C13.8003 14.7264 14.0357 14.8214 14.2257 15.0114C14.4156 15.2014 14.5106 15.4368 14.5106 15.7176C14.5106 15.9985 14.4156 16.2339 14.2257 16.4239C14.0357 16.6139 13.8003 16.7088 13.5194 16.7088Z" fill="#005E5D"/>
</svg>
