<svg width="34" height="33" viewBox="0 0 34 33" fill="none" xmlns="http://www.w3.org/2000/svg">
<g id="Group">
<path id="Vector" d="M19.1604 29.8558C25.6556 28.8784 30.6359 23.2743 30.6359 16.5064C30.6359 9.05007 24.5917 3.00586 17.1353 3.00586C9.67897 3.00586 3.63477 9.05007 3.63477 16.5064C3.63477 23.2743 8.61513 28.8797 15.1103 29.8558V20.5566H13.0852C12.5481 20.5566 12.033 20.3432 11.6532 19.9635C11.2734 19.5837 11.0601 19.0686 11.0601 18.5315C11.0601 17.9944 11.2734 17.4793 11.6532 17.0996C12.033 16.7198 12.5481 16.5064 13.0852 16.5064H15.1103V13.8063C15.1103 12.5531 15.6081 11.3512 16.4942 10.4651C17.3804 9.57895 18.5823 9.08112 19.8355 9.08112H20.5105C21.0476 9.08112 21.5627 9.29447 21.9424 9.67425C22.3222 10.054 22.5356 10.5691 22.5356 11.1062C22.5356 11.6433 22.3222 12.1584 21.9424 12.5382C21.5627 12.9179 21.0476 13.1313 20.5105 13.1313H19.8355C19.6564 13.1313 19.4847 13.2024 19.3581 13.329C19.2315 13.4556 19.1604 13.6273 19.1604 13.8063V16.5064H21.1855C21.7226 16.5064 22.2377 16.7198 22.6175 17.0996C22.9972 17.4793 23.2106 17.9944 23.2106 18.5315C23.2106 19.0686 22.9972 19.5837 22.6175 19.9635C22.2377 20.3432 21.7226 20.5566 21.1855 20.5566H19.1604V29.8558Z" fill="#D1D1D1"/>
</g>
</svg>
