<svg width="32" height="32" viewBox="0 0 32 32" fill="none" xmlns="http://www.w3.org/2000/svg">
<path id="Vector" d="M20.8513 15.8593C20.8513 17.1483 20.3393 18.3845 19.4278 19.296C18.5164 20.2075 17.2801 20.7195 15.9911 20.7195C14.7021 20.7195 13.4659 20.2075 12.5545 19.296C11.643 18.3845 11.1309 17.1483 11.1309 15.8593C11.1309 15.5823 11.1601 15.3117 11.2103 15.0493H9.51086V21.5247C9.51086 21.9751 9.87538 22.3396 10.3258 22.3396H21.6581C21.874 22.3391 22.0808 22.2531 22.2333 22.1003C22.3858 21.9476 22.4714 21.7405 22.4714 21.5247V15.0493H20.772C20.8222 15.3117 20.8513 15.5823 20.8513 15.8593ZM15.9911 19.0994C16.4167 19.0993 16.8382 19.0154 17.2313 18.8524C17.6245 18.6895 17.9817 18.4506 18.2826 18.1496C18.5835 17.8486 18.8221 17.4913 18.9849 17.098C19.1477 16.7048 19.2314 16.2833 19.2313 15.8577C19.2312 15.4321 19.1472 15.0107 18.9843 14.6175C18.8213 14.2243 18.5825 13.8671 18.2815 13.5662C17.9804 13.2653 17.6231 13.0267 17.2298 12.8639C16.8366 12.7012 16.4151 12.6174 15.9895 12.6175C15.13 12.6178 14.3057 12.9594 13.6981 13.5674C13.0904 14.1753 12.7492 14.9997 12.7494 15.8593C12.7496 16.7189 13.0913 17.5431 13.6992 18.1508C14.3072 18.7584 15.1316 19.0997 15.9911 19.0994ZM19.8793 12.4572H21.8218C21.9508 12.4572 22.0746 12.406 22.166 12.3149C22.2574 12.2238 22.309 12.1002 22.3094 11.9711V10.0287C22.3094 9.89934 22.258 9.77531 22.1666 9.68386C22.0751 9.59241 21.9511 9.54103 21.8218 9.54103H19.8793C19.75 9.54103 19.6259 9.59241 19.5345 9.68386C19.443 9.77531 19.3917 9.89934 19.3917 10.0287V11.9711C19.3933 12.2384 19.612 12.4572 19.8793 12.4572ZM15.9911 0.306641C11.8663 0.306641 7.91044 1.94522 4.99375 4.86191C2.07706 7.7786 0.438477 11.7345 0.438477 15.8593C0.438477 19.9841 2.07706 23.94 4.99375 26.8567C7.91044 29.7734 11.8663 31.412 15.9911 31.412C18.0335 31.412 20.0559 31.0097 21.9429 30.2281C23.8298 29.4465 25.5443 28.3009 26.9885 26.8567C28.4327 25.4125 29.5783 23.698 30.3599 21.811C31.1415 19.9241 31.5438 17.9017 31.5438 15.8593C31.5438 13.8169 31.1415 11.7945 30.3599 9.90756C29.5783 8.02062 28.4327 6.30611 26.9885 4.86191C25.5443 3.41771 23.8298 2.27211 21.9429 1.49052C20.0559 0.708922 18.0335 0.306641 15.9911 0.306641ZM24.0915 22.1598C24.0915 23.1496 23.2814 23.9596 22.2916 23.9596H9.69069C8.70083 23.9596 7.89079 23.1496 7.89079 22.1598V9.55885C7.89079 8.56899 8.70083 7.75896 9.69069 7.75896H22.2916C23.2814 7.75896 24.0915 8.56899 24.0915 9.55885V22.1598Z" fill="#D1D1D1"/>
</svg>
