<svg width="32" height="32" viewBox="0 0 32 32" fill="none" xmlns="http://www.w3.org/2000/svg">
<path id="Vector" d="M15.9472 0.306641C7.35759 0.306641 0.394531 7.2697 0.394531 15.8593C0.394531 24.4489 7.35759 31.412 15.9472 31.412C24.5368 31.412 31.4999 24.4489 31.4999 15.8593C31.4999 7.2697 24.5368 0.306641 15.9472 0.306641ZM12.14 22.3056H8.99062V12.1704H12.14V22.3056ZM10.5459 10.9262C9.55116 10.9262 8.90799 10.2215 8.90799 9.34986C8.90799 8.46045 9.5706 7.77678 10.5864 7.77678C11.6022 7.77678 12.2243 8.46045 12.2437 9.34986C12.2437 10.2215 11.6022 10.9262 10.5459 10.9262ZM23.6425 22.3056H20.4931V16.6888C20.4931 15.3814 20.0362 14.4936 18.8973 14.4936C18.0274 14.4936 17.5106 15.0946 17.2821 15.673C17.1979 15.8787 17.1768 16.1704 17.1768 16.4603V22.3039H14.0258V15.4024C14.0258 14.1372 13.9853 13.0793 13.9432 12.1688H16.6795L16.8237 13.5766H16.8868C17.3016 12.9156 18.3174 11.9404 20.0168 11.9404C22.0889 11.9404 23.6425 13.3288 23.6425 16.3129V22.3056Z" fill="#D1D1D1"/>
</svg>
