<svg width="18" height="22" viewBox="0 0 18 22" fill="none" xmlns="http://www.w3.org/2000/svg">
<path id="location_on" d="M9.11565 10.7608C9.68729 10.7608 10.1767 10.5572 10.5837 10.1501C10.9908 9.74306 11.1944 9.2537 11.1944 8.68205C11.1944 8.1104 10.9908 7.62104 10.5837 7.21396C10.1767 6.80688 9.68729 6.60333 9.11565 6.60333C8.544 6.60333 8.05463 6.80688 7.64755 7.21396C7.24047 7.62104 7.03693 8.1104 7.03693 8.68205C7.03693 9.2537 7.24047 9.74306 7.64755 10.1501C8.05463 10.5572 8.544 10.7608 9.11565 10.7608ZM9.11565 18.4C11.229 16.4599 12.7967 14.6973 13.8187 13.1123C14.8408 11.5273 15.3518 10.1198 15.3518 8.88992C15.3518 7.00176 14.7498 5.45571 13.5459 4.25179C12.342 3.04786 10.8652 2.4459 9.11565 2.4459C7.36606 2.4459 5.8893 3.04786 4.68538 4.25179C3.48146 5.45571 2.8795 7.00176 2.8795 8.88992C2.8795 10.1198 3.39052 11.5273 4.41255 13.1123C5.43459 14.6973 7.00228 16.4599 9.11565 18.4ZM9.11565 21.1543C6.3267 18.7811 4.24365 16.5768 2.86651 14.5414C1.48936 12.506 0.800781 10.6222 0.800781 8.88992C0.800781 6.29153 1.6366 4.22147 3.30823 2.67976C4.97987 1.13804 6.91567 0.367188 9.11565 0.367188C11.3156 0.367188 13.2514 1.13804 14.9231 2.67976C16.5947 4.22147 17.4305 6.29153 17.4305 8.88992C17.4305 10.6222 16.7419 12.506 15.3648 14.5414C13.9876 16.5768 11.9046 18.7811 9.11565 21.1543Z" fill="#005E5D"/>
</svg>
