<svg width="18" height="23" viewBox="0 0 18 23" fill="none" xmlns="http://www.w3.org/2000/svg">
<path id="location_on" d="M8.94132 11.4003C9.53482 11.4003 10.0429 11.189 10.4655 10.7663C10.8882 10.3437 11.0995 9.8356 11.0995 9.2421C11.0995 8.6486 10.8882 8.14053 10.4655 7.71788C10.0429 7.29524 9.53482 7.08392 8.94132 7.08392C8.34782 7.08392 7.83975 7.29524 7.4171 7.71788C6.99446 8.14053 6.78314 8.6486 6.78314 9.2421C6.78314 9.8356 6.99446 10.3437 7.4171 10.7663C7.83975 11.189 8.34782 11.4003 8.94132 11.4003ZM8.94132 19.3316C11.1355 17.3173 12.7631 15.4873 13.8242 13.8417C14.8853 12.1961 15.4159 10.7348 15.4159 9.45792C15.4159 7.49757 14.7909 5.89242 13.5409 4.64248C12.291 3.39253 10.7578 2.76756 8.94132 2.76756C7.12485 2.76756 5.59164 3.39253 4.34169 4.64248C3.09175 5.89242 2.46677 7.49757 2.46677 9.45792C2.46677 10.7348 2.99733 12.1961 4.05843 13.8417C5.11954 15.4873 6.74717 17.3173 8.94132 19.3316ZM8.94132 22.1912C6.04576 19.7273 3.88308 17.4387 2.45329 15.3255C1.02349 13.2123 0.308594 11.2564 0.308594 9.45792C0.308594 6.76019 1.17636 4.611 2.9119 3.01035C4.64744 1.4097 6.65724 0.609375 8.94132 0.609375C11.2254 0.609375 13.2352 1.4097 14.9707 3.01035C16.7063 4.611 17.574 6.76019 17.574 9.45792C17.574 11.2564 16.8591 13.2123 15.4294 15.3255C13.9996 17.4387 11.8369 19.7273 8.94132 22.1912Z" fill="white"/>
</svg>
