<svg width="14" height="18" viewBox="0 0 14 18" fill="none" xmlns="http://www.w3.org/2000/svg">
<path id="lock" d="M1.70035 17.7951C1.2349 17.7951 0.836452 17.6294 0.504996 17.2979C0.17354 16.9665 0.0078125 16.568 0.0078125 16.1026V7.63987C0.0078125 7.17442 0.17354 6.77597 0.504996 6.44451C0.836452 6.11306 1.2349 5.94733 1.70035 5.94733H2.54662V4.25479C2.54662 3.08412 2.95918 2.08622 3.78429 1.26111C4.60941 0.435994 5.6073 0.0234375 6.77798 0.0234375C7.94865 0.0234375 8.94654 0.435994 9.77166 1.26111C10.5968 2.08622 11.0093 3.08412 11.0093 4.25479V5.94733H11.8556C12.321 5.94733 12.7195 6.11306 13.051 6.44451C13.3824 6.77597 13.5481 7.17442 13.5481 7.63987V16.1026C13.5481 16.568 13.3824 16.9665 13.051 17.2979C12.7195 17.6294 12.321 17.7951 11.8556 17.7951H1.70035ZM1.70035 16.1026H11.8556V7.63987H1.70035V16.1026ZM6.77798 13.5638C7.24342 13.5638 7.64188 13.398 7.97333 13.0666C8.30479 12.7351 8.47052 12.3367 8.47052 11.8712C8.47052 11.4058 8.30479 11.0073 7.97333 10.6759C7.64188 10.3444 7.24342 10.1787 6.77798 10.1787C6.31253 10.1787 5.91407 10.3444 5.58262 10.6759C5.25116 11.0073 5.08543 11.4058 5.08543 11.8712C5.08543 12.3367 5.25116 12.7351 5.58262 13.0666C5.91407 13.398 6.31253 13.5638 6.77798 13.5638ZM4.23916 5.94733H9.31679V4.25479C9.31679 3.54956 9.06996 2.95012 8.5763 2.45647C8.08264 1.96281 7.4832 1.71598 6.77798 1.71598C6.07275 1.71598 5.47331 1.96281 4.97965 2.45647C4.48599 2.95012 4.23916 3.54956 4.23916 4.25479V5.94733Z" fill="#005E5D"/>
</svg>
