<svg width="18" height="15" viewBox="0 0 18 15" fill="none" xmlns="http://www.w3.org/2000/svg">
<path id="mail" d="M2.0386 14.4983C1.55237 14.4983 1.13614 14.3251 0.789885 13.9789C0.443634 13.6326 0.270508 13.2164 0.270508 12.7302V2.12161C0.270508 1.63538 0.443634 1.21914 0.789885 0.872893C1.13614 0.526641 1.55237 0.353516 2.0386 0.353516H16.1833C16.6696 0.353516 17.0858 0.526641 17.4321 0.872893C17.7783 1.21914 17.9514 1.63538 17.9514 2.12161V12.7302C17.9514 13.2164 17.7783 13.6326 17.4321 13.9789C17.0858 14.3251 16.6696 14.4983 16.1833 14.4983H2.0386ZM9.11097 8.30993L2.0386 3.8897V12.7302H16.1833V3.8897L9.11097 8.30993ZM9.11097 6.54184L16.1833 2.12161H2.0386L9.11097 6.54184ZM2.0386 3.8897V2.12161V12.7302V3.8897Z" fill="white"/>
</svg>
