<svg width="21" height="21" viewBox="0 0 21 21" fill="none" xmlns="http://www.w3.org/2000/svg">
<path id="account_circle" d="M4.11363 15.8734C5.002 15.1941 5.99488 14.6584 7.09228 14.2665C8.18967 13.8746 9.33932 13.6786 10.5412 13.6786C11.7431 13.6786 12.8928 13.8746 13.9902 14.2665C15.0876 14.6584 16.0805 15.1941 16.9688 15.8734C17.5785 15.1592 18.0532 14.3492 18.3928 13.4434C18.7325 12.5377 18.9023 11.5709 18.9023 10.5432C18.9023 8.22646 18.088 6.25376 16.4593 4.62509C14.8307 2.99641 12.858 2.18207 10.5412 2.18207C8.22451 2.18207 6.25181 2.99641 4.62313 4.62509C2.99446 6.25376 2.18012 8.22646 2.18012 10.5432C2.18012 11.5709 2.34996 12.5377 2.68963 13.4434C3.0293 14.3492 3.50396 15.1592 4.11363 15.8734ZM10.5412 11.5883C9.51351 11.5883 8.64692 11.2356 7.94145 10.5301C7.23598 9.82465 6.88325 8.95806 6.88325 7.93034C6.88325 6.90262 7.23598 6.03603 7.94145 5.33056C8.64692 4.62509 9.51351 4.27235 10.5412 4.27235C11.569 4.27235 12.4355 4.62509 13.141 5.33056C13.8465 6.03603 14.1992 6.90262 14.1992 7.93034C14.1992 8.95806 13.8465 9.82465 13.141 10.5301C12.4355 11.2356 11.569 11.5883 10.5412 11.5883ZM10.5412 20.9946C9.09546 20.9946 7.73678 20.7202 6.46519 20.1715C5.19361 19.6228 4.0875 18.8782 3.14688 17.9375C2.20625 16.9969 1.46159 15.8908 0.912891 14.6192C0.364193 13.3476 0.0898438 11.989 0.0898438 10.5432C0.0898438 9.09741 0.364193 7.73873 0.912891 6.46714C1.46159 5.19556 2.20625 4.08945 3.14688 3.14883C4.0875 2.2082 5.19361 1.46354 6.46519 0.914844C7.73678 0.366146 9.09546 0.0917969 10.5412 0.0917969C11.987 0.0917969 13.3457 0.366146 14.6173 0.914844C15.8889 1.46354 16.995 2.2082 17.9356 3.14883C18.8762 4.08945 19.6209 5.19556 20.1696 6.46714C20.7183 7.73873 20.9926 9.09741 20.9926 10.5432C20.9926 11.989 20.7183 13.3476 20.1696 14.6192C19.6209 15.8908 18.8762 16.9969 17.9356 17.9375C16.995 18.8782 15.8889 19.6228 14.6173 20.1715C13.3457 20.7202 11.987 20.9946 10.5412 20.9946ZM10.5412 18.9043C11.4644 18.9043 12.3354 18.7693 13.1541 18.4993C13.9728 18.2293 14.7218 17.8417 15.4011 17.3366C14.7218 16.8314 13.9728 16.4439 13.1541 16.1739C12.3354 15.9039 11.4644 15.7689 10.5412 15.7689C9.61803 15.7689 8.74708 15.9039 7.92839 16.1739C7.10969 16.4439 6.36068 16.8314 5.68134 17.3366C6.36068 17.8417 7.10969 18.2293 7.92839 18.4993C8.74708 18.7693 9.61803 18.9043 10.5412 18.9043ZM10.5412 9.49805C10.9941 9.49805 11.3686 9.34999 11.6648 9.05386C11.9609 8.75774 12.1089 8.38323 12.1089 7.93034C12.1089 7.47745 11.9609 7.10294 11.6648 6.80681C11.3686 6.51069 10.9941 6.36263 10.5412 6.36263C10.0883 6.36263 9.71383 6.51069 9.41771 6.80681C9.12159 7.10294 8.97353 7.47745 8.97353 7.93034C8.97353 8.38323 9.12159 8.75774 9.41771 9.05386C9.71383 9.34999 10.0883 9.49805 10.5412 9.49805Z" fill="black"/>
</svg>
