<svg width="18" height="18" viewBox="0 0 18 18" fill="none" xmlns="http://www.w3.org/2000/svg">
<path id="Vector" fill-rule="evenodd" clip-rule="evenodd" d="M14 5C14 7.7615 11.7615 10 9 10C6.2385 10 4 7.7615 4 5C4 2.2385 6.2385 0 9 0C11.7615 0 14 2.2385 14 5ZM13 5C13 6.06087 12.5786 7.07828 11.8284 7.82843C11.0783 8.57857 10.0609 9 9 9C7.93913 9 6.92172 8.57857 6.17157 7.82843C5.42143 7.07828 5 6.06087 5 5C5 3.93913 5.42143 2.92172 6.17157 2.17157C6.92172 1.42143 7.93913 1 9 1C10.0609 1 11.0783 1.42143 11.8284 2.17157C12.5786 2.92172 13 3.93913 13 5ZM5.957 11.4275L5.9625 11.4385L6 11.512H11.8745C11.989 11.295 12.2485 10.949 12.5 11.0065C13.065 11.135 13.634 11.314 14.1805 11.5345L14.197 11.5265L14.2025 11.5375L14.2065 11.545C16.264 12.381 18 13.798 18 15.285V18H0V15.285C0 13.3975 2.798 11.6215 5.5 11.0065C5.7205 10.9565 5.8515 11.2165 5.957 11.4275ZM13.352 12.2915C13.1375 12.2164 12.9205 12.1485 12.7015 12.088L12.4785 12.512H5.3965L5.1895 12.1185L5.0095 12.1725C5.006 12.2055 5.003 12.2425 5.0015 12.2845C4.995 12.457 5.008 12.6615 5.0365 12.8695C5.06575 13.0864 5.11257 13.3006 5.1765 13.51C5.52773 13.5516 5.85296 13.716 6.09476 13.9741C6.33655 14.2323 6.47935 14.5675 6.49795 14.9207C6.51654 15.2739 6.40972 15.6223 6.19636 15.9044C5.983 16.1865 5.67683 16.3841 5.3319 16.4624C4.98698 16.5407 4.6255 16.4945 4.31129 16.3321C3.99709 16.1697 3.75038 15.9015 3.61473 15.5749C3.47908 15.2482 3.46321 14.8842 3.56994 14.547C3.67666 14.2098 3.89911 13.9211 4.198 13.732L4.194 13.718C4.12737 13.4842 4.07774 13.2459 4.0455 13.005C4.02429 12.8511 4.01027 12.6962 4.0035 12.541C3.3855 12.805 2.809 13.124 2.326 13.476C1.365 14.178 1 14.834 1 15.285V17H17V15.285C17 14.8335 16.635 14.1775 15.674 13.4765C15.255 13.1752 14.8087 12.9137 14.341 12.6955C14.3207 12.9665 14.2792 13.2355 14.217 13.5H14.5C14.5928 13.5 14.6838 13.5259 14.7628 13.5748C14.8417 13.6236 14.9055 13.6935 14.947 13.7765L15.447 14.7765C15.482 14.846 15.5 14.9225 15.5 15V16C15.5 16.1326 15.4473 16.2598 15.3536 16.3536C15.2598 16.4473 15.1326 16.5 15 16.5H14V15.5H14.5V15.118L14.191 14.5H12.809L12.5 15.118V15.5H13V16.5H12C11.8674 16.5 11.7402 16.4473 11.6464 16.3536C11.5527 16.2598 11.5 16.1326 11.5 16V15C11.5 14.9225 11.518 14.846 11.553 14.7765L12.053 13.7765C12.0945 13.6935 12.1583 13.6236 12.2372 13.5748C12.3162 13.5259 12.4072 13.5 12.5 13.5H13.181C13.187 13.48 13.1935 13.46 13.1995 13.438C13.2465 13.2775 13.2885 13.078 13.317 12.87C13.345 12.664 13.358 12.4625 13.352 12.2915ZM5.5 15C5.5 15.287 5.269 15.5075 5 15.5075C4.731 15.5075 4.5 15.2875 4.5 15C4.5 14.713 4.731 14.4925 5 14.4925C5.269 14.4925 5.5 14.7125 5.5 15Z" fill="black"/>
</svg>
