<svg width="22" height="23" viewBox="0 0 22 23" fill="none" xmlns="http://www.w3.org/2000/svg">
<g id="Group">
<path id="Vector" d="M14.013 0C12.6142 0 11.4855 -1.52484e-08 10.5983 0.119726C9.67731 0.242523 8.90164 0.508582 8.28561 1.12359C7.7494 1.66082 7.4772 2.32085 7.33496 3.09652C7.19682 3.85069 7.17021 4.77269 7.16407 5.8799C7.16299 6.08345 7.24281 6.27909 7.38597 6.42379C7.52913 6.56849 7.72391 6.65039 7.92746 6.65147C8.13101 6.65256 8.32665 6.57274 8.47135 6.42958C8.61604 6.28641 8.69794 6.09164 8.69903 5.88809C8.70517 4.76962 8.73382 3.97656 8.84434 3.37383C8.95178 2.79464 9.12268 2.45797 9.37134 2.20931C9.65479 1.92586 10.0529 1.74166 10.804 1.64036C11.5766 1.537 12.6009 1.53496 14.0693 1.53496H15.0926C16.5621 1.53496 17.5864 1.537 18.359 1.64036C19.1101 1.74166 19.5072 1.92688 19.7916 2.20931C20.0741 2.49277 20.2583 2.88981 20.3596 3.64194C20.4639 4.41351 20.465 5.43886 20.465 6.9073V15.0937C20.465 16.5622 20.4639 17.5865 20.3596 18.3601C20.2583 19.1112 20.0741 19.5083 19.7906 19.7917C19.5072 20.0752 19.1101 20.2594 18.359 20.3607C17.5864 20.464 16.5621 20.4661 15.0926 20.4661H14.0693C12.6009 20.4661 11.5766 20.464 10.8029 20.3607C10.0529 20.2594 9.65479 20.0741 9.37134 19.7917C9.12268 19.542 8.95178 19.2064 8.84434 18.6272C8.73382 18.0245 8.70517 17.2314 8.69903 16.1129C8.69849 16.0121 8.67811 15.9125 8.63904 15.8195C8.59998 15.7266 8.54299 15.6423 8.47135 15.5714C8.3997 15.5006 8.31479 15.4445 8.22147 15.4064C8.12815 15.3683 8.02824 15.349 7.92746 15.3496C7.82667 15.3501 7.72698 15.3705 7.63407 15.4095C7.54116 15.4486 7.45686 15.5056 7.38597 15.5772C7.31508 15.6489 7.259 15.7338 7.22093 15.8271C7.18286 15.9204 7.16354 16.0203 7.16407 16.1211C7.17021 17.2283 7.19682 18.1503 7.33496 18.9045C7.47823 19.6802 7.7494 20.3402 8.28664 20.8774C8.90164 21.4935 9.67833 21.7575 10.5993 21.8823C11.4855 22.001 12.6142 22.001 14.013 22.001H15.1489C16.5488 22.001 17.6765 22.001 18.5637 21.8823C19.4846 21.7575 20.2603 21.4935 20.8763 20.8774C21.4924 20.2614 21.7564 19.4857 21.8812 18.5648C21.9999 17.6776 21.9999 16.5489 21.9999 15.15V6.85102C21.9999 5.45216 21.9999 4.32346 21.8812 3.43625C21.7574 2.51528 21.4924 1.73962 20.8763 1.12359C20.2603 0.507559 19.4846 0.243546 18.5637 0.119726C17.6765 -1.52484e-08 16.5478 0 15.1489 0H14.013Z" fill="black"/>
<path id="Vector_2" d="M0.767477 10.2324C0.56393 10.2324 0.368719 10.3133 0.224789 10.4572C0.080859 10.6011 0 10.7963 0 10.9999C0 11.2034 0.080859 11.3986 0.224789 11.5426C0.368719 11.6865 0.56393 11.7673 0.767477 11.7673H13.0195L11.0128 13.4865C10.9362 13.5521 10.8733 13.6321 10.8276 13.722C10.7819 13.8119 10.7544 13.9099 10.7466 14.0104C10.7309 14.2135 10.7964 14.4145 10.9289 14.5692C11.0613 14.7238 11.2498 14.8196 11.4528 14.8353C11.6559 14.8511 11.8568 14.7855 12.0115 14.6531L15.5931 11.5832C15.6774 11.5111 15.745 11.4217 15.7914 11.321C15.8378 11.2203 15.8618 11.1107 15.8618 10.9999C15.8618 10.889 15.8378 10.7795 15.7914 10.6788C15.745 10.5781 15.6774 10.4886 15.5931 10.4166L12.0115 7.34668C11.8568 7.21423 11.6559 7.14867 11.4528 7.16441C11.2498 7.18014 11.0613 7.27589 10.9289 7.43059C10.7964 7.58528 10.7309 7.78626 10.7466 7.98929C10.7623 8.19233 10.8581 8.3808 11.0128 8.51324L13.0185 10.2324H0.768501H0.767477Z" fill="black"/>
</g>
</svg>
