<svg width="33" height="33" viewBox="0 0 33 33" fill="none" xmlns="http://www.w3.org/2000/svg">
<path id="Vector" d="M16.3872 0.306641C7.43971 0.306641 0.186523 7.55982 0.186523 16.5073C0.186523 25.4548 7.43971 32.708 16.3872 32.708C25.3347 32.708 32.5879 25.4548 32.5879 16.5073C32.5879 7.55982 25.3347 0.306641 16.3872 0.306641ZM22.9772 13.5777C22.9839 13.7161 22.9856 13.8545 22.9856 13.9895C22.9856 18.2084 19.7775 23.0703 13.9082 23.0703C12.1738 23.0732 10.4756 22.5751 9.01758 21.6359C9.26566 21.6662 9.52048 21.678 9.77868 21.678C11.2739 21.678 12.6492 21.1701 13.7411 20.3128C13.0757 20.2997 12.431 20.0794 11.8968 19.6825C11.3626 19.2856 10.9655 18.732 10.7608 18.0987C11.2387 18.1896 11.7309 18.1705 12.2003 18.043C11.4781 17.897 10.8287 17.5057 10.3621 16.9354C9.89549 16.3652 9.64048 15.6511 9.6403 14.9143V14.8754C10.0706 15.1134 10.5634 15.2585 11.0865 15.2754C10.4095 14.8247 9.9302 14.1324 9.74669 13.34C9.56318 12.5476 9.68932 11.7151 10.0993 11.0126C10.9008 11.9981 11.9004 12.8044 13.0333 13.3791C14.1662 13.9538 15.4071 14.2842 16.6758 14.3489C16.5145 13.6643 16.5839 12.9455 16.8732 12.3044C17.1626 11.6633 17.6556 11.1358 18.2757 10.8038C18.8958 10.4718 19.6082 10.354 20.3022 10.4686C20.9962 10.5833 21.6328 10.924 22.1131 11.4379C22.8273 11.2966 23.5121 11.0346 24.1382 10.6633C23.9002 11.4027 23.4019 12.0305 22.7359 12.4302C23.3684 12.354 23.9861 12.1839 24.5686 11.9256C24.1407 12.5667 23.6018 13.1262 22.9772 13.5777Z" fill="#D1D1D1"/>
</svg>
